<svg width="94" height="60" viewBox="0 0 94 60" fill="none" xmlns="http://www.w3.org/2000/svg">
<mask id="path-1-inside-1_10_763" fill="white">
<path d="M59.9424 23.4254C59.3226 23.7985 58.5994 23.8663 58.0484 23.561C57.3596 23.1541 56.9464 22.2384 56.9464 20.9835V17.1512C56.9464 15.3198 56.2232 13.9971 54.9835 13.6579C52.8828 13.0475 51.2987 15.5911 50.7133 16.5407L46.9941 22.4079V15.1841C46.9596 13.5223 46.4086 12.5388 45.3755 12.2335C44.6868 12.03 43.6537 12.1318 42.655 13.624L34.3556 26.7151C33.2536 24.6463 32.6682 22.3401 32.6682 20C32.6682 12.0979 39.108 5.68798 46.9941 5.68798C54.8802 5.68798 61.3199 12.0979 61.3199 20V20.0339V20.0678C61.3888 21.594 60.9067 22.8149 59.9424 23.4254ZM64.4881 20V19.9661V19.9322C64.4537 10.3343 56.602 2.5 46.9941 2.5C37.3517 2.5 29.5 10.3343 29.5 20C29.5 29.6318 37.3517 37.5 46.9941 37.5C51.4365 37.5 55.6378 35.8382 58.8749 32.8198C59.5292 32.2093 59.5636 31.2258 58.9438 30.5814C58.3583 29.937 57.3596 29.9031 56.7053 30.4796C56.7053 30.4796 56.7053 30.4796 56.6709 30.5136C54.0537 32.9554 50.5411 34.3459 46.9252 34.3459C42.6894 34.3459 38.9013 32.5145 36.2841 29.5979L43.757 17.7955V23.2558C43.757 25.8672 44.7901 26.7151 45.651 26.9525C46.5119 27.1899 47.8206 27.0204 49.2325 24.8159L53.3305 18.2703C53.4683 18.0669 53.5716 17.8634 53.7093 17.7277V21.0514C53.7093 23.4932 54.708 25.4603 56.4298 26.4099C57.9795 27.2917 59.9424 27.1899 61.561 26.2064C63.5583 24.9176 64.6259 22.6793 64.4881 20Z"/>
</mask>
<path d="M59.9424 23.4254C59.3226 23.7985 58.5994 23.8663 58.0484 23.561C57.3596 23.1541 56.9464 22.2384 56.9464 20.9835V17.1512C56.9464 15.3198 56.2232 13.9971 54.9835 13.6579C52.8828 13.0475 51.2987 15.5911 50.7133 16.5407L46.9941 22.4079V15.1841C46.9596 13.5223 46.4086 12.5388 45.3755 12.2335C44.6868 12.03 43.6537 12.1318 42.655 13.624L34.3556 26.7151C33.2536 24.6463 32.6682 22.3401 32.6682 20C32.6682 12.0979 39.108 5.68798 46.9941 5.68798C54.8802 5.68798 61.3199 12.0979 61.3199 20V20.0339V20.0678C61.3888 21.594 60.9067 22.8149 59.9424 23.4254ZM64.4881 20V19.9661V19.9322C64.4537 10.3343 56.602 2.5 46.9941 2.5C37.3517 2.5 29.5 10.3343 29.5 20C29.5 29.6318 37.3517 37.5 46.9941 37.5C51.4365 37.5 55.6378 35.8382 58.8749 32.8198C59.5292 32.2093 59.5636 31.2258 58.9438 30.5814C58.3583 29.937 57.3596 29.9031 56.7053 30.4796C56.7053 30.4796 56.7053 30.4796 56.6709 30.5136C54.0537 32.9554 50.5411 34.3459 46.9252 34.3459C42.6894 34.3459 38.9013 32.5145 36.2841 29.5979L43.757 17.7955V23.2558C43.757 25.8672 44.7901 26.7151 45.651 26.9525C46.5119 27.1899 47.8206 27.0204 49.2325 24.8159L53.3305 18.2703C53.4683 18.0669 53.5716 17.8634 53.7093 17.7277V21.0514C53.7093 23.4932 54.708 25.4603 56.4298 26.4099C57.9795 27.2917 59.9424 27.1899 61.561 26.2064C63.5583 24.9176 64.6259 22.6793 64.4881 20Z" fill="url(#paint0_linear_10_763)"/>
<path d="M59.9424 23.4254C59.3226 23.7985 58.5994 23.8663 58.0484 23.561C57.3596 23.1541 56.9464 22.2384 56.9464 20.9835V17.1512C56.9464 15.3198 56.2232 13.9971 54.9835 13.6579C52.8828 13.0475 51.2987 15.5911 50.7133 16.5407L46.9941 22.4079V15.1841C46.9596 13.5223 46.4086 12.5388 45.3755 12.2335C44.6868 12.03 43.6537 12.1318 42.655 13.624L34.3556 26.7151C33.2536 24.6463 32.6682 22.3401 32.6682 20C32.6682 12.0979 39.108 5.68798 46.9941 5.68798C54.8802 5.68798 61.3199 12.0979 61.3199 20V20.0339V20.0678C61.3888 21.594 60.9067 22.8149 59.9424 23.4254ZM64.4881 20V19.9661V19.9322C64.4537 10.3343 56.602 2.5 46.9941 2.5C37.3517 2.5 29.5 10.3343 29.5 20C29.5 29.6318 37.3517 37.5 46.9941 37.5C51.4365 37.5 55.6378 35.8382 58.8749 32.8198C59.5292 32.2093 59.5636 31.2258 58.9438 30.5814C58.3583 29.937 57.3596 29.9031 56.7053 30.4796C56.7053 30.4796 56.7053 30.4796 56.6709 30.5136C54.0537 32.9554 50.5411 34.3459 46.9252 34.3459C42.6894 34.3459 38.9013 32.5145 36.2841 29.5979L43.757 17.7955V23.2558C43.757 25.8672 44.7901 26.7151 45.651 26.9525C46.5119 27.1899 47.8206 27.0204 49.2325 24.8159L53.3305 18.2703C53.4683 18.0669 53.5716 17.8634 53.7093 17.7277V21.0514C53.7093 23.4932 54.708 25.4603 56.4298 26.4099C57.9795 27.2917 59.9424 27.1899 61.561 26.2064C63.5583 24.9176 64.6259 22.6793 64.4881 20Z" fill="#D1D2D7" fill-opacity="0.3"/>
<path d="M59.9424 23.4254L70.2555 40.5613L70.4495 40.4446L70.6407 40.3235L59.9424 23.4254ZM58.0484 23.561L47.8739 40.7797L48.1134 40.9212L48.3568 41.056L58.0484 23.561ZM54.9835 13.6579L49.4023 32.8634L49.5539 32.9075L49.7061 32.9491L54.9835 13.6579ZM50.7133 16.5407L67.6054 27.2485L67.6724 27.1428L67.738 27.0364L50.7133 16.5407ZM46.9941 22.4079H26.9941V91.315L63.8862 33.1157L46.9941 22.4079ZM46.9941 15.1841H66.9941V14.9769L66.9898 14.7697L46.9941 15.1841ZM45.3755 12.2335L39.7087 31.4139L45.3755 12.2335ZM42.655 13.624L26.0338 2.5004L25.8961 2.70618L25.7635 2.91532L42.655 13.624ZM34.3556 26.7151L16.7037 36.1178L32.8538 66.4368L51.2472 37.4238L34.3556 26.7151ZM61.3199 20.0678H41.3199V20.5189L41.3403 20.9695L61.3199 20.0678ZM64.4881 20H44.4881V20.5138L44.5145 21.0269L64.4881 20ZM64.4881 19.9322H84.4881V19.8963L84.488 19.8604L64.4881 19.9322ZM58.8749 32.8198L72.5143 47.4473L72.5186 47.4433L58.8749 32.8198ZM58.9438 30.5814L44.1407 44.0302L44.3325 44.2413L44.5301 44.4467L58.9438 30.5814ZM56.7053 30.4796L43.4829 15.474L43.0668 15.8407L42.6717 16.2298L56.7053 30.4796ZM56.6709 30.5136L70.3146 45.1371L70.5121 44.9529L70.7045 44.7634L56.6709 30.5136ZM36.2841 29.5979L19.3865 18.8988L11.2885 31.6885L21.3985 42.9552L36.2841 29.5979ZM43.757 17.7955H63.757V-51.1781L26.8593 7.09649L43.757 17.7955ZM49.2325 24.8159L66.0742 35.6028L66.1297 35.5162L66.1842 35.429L49.2325 24.8159ZM53.3305 18.2703L36.7684 7.05887L36.5682 7.35458L36.3787 7.65724L53.3305 18.2703ZM53.7093 17.7277H73.7093V-30.0394L39.6757 3.4779L53.7093 17.7277ZM56.4298 26.4099L66.3209 9.02696L66.2051 8.96105L66.0884 8.8967L56.4298 26.4099ZM61.561 26.2064L71.947 43.2982L72.1776 43.1581L72.4044 43.0118L61.561 26.2064ZM49.6293 6.28946C53.4802 3.97187 60.5148 2.06361 67.74 6.06611L48.3568 41.056C56.6839 45.6689 65.165 43.625 70.2555 40.5613L49.6293 6.28946ZM68.2228 6.34243C76.2301 11.0739 76.9464 18.8346 76.9464 20.9835H36.9464C36.9464 25.6421 38.4892 35.2342 47.8739 40.7797L68.2228 6.34243ZM76.9464 20.9835V17.1512H36.9464V20.9835H76.9464ZM76.9464 17.1512C76.9464 11.54 74.3756 -1.77195 60.2609 -5.63323L49.7061 32.9491C44.4266 31.5048 40.8566 27.9822 38.963 24.5872C37.2258 21.4724 36.9464 18.6865 36.9464 17.1512H76.9464ZM60.5647 -5.54753C49.5809 -8.73949 41.5461 -2.80637 38.6843 -0.153808C35.7143 2.59909 33.9171 5.6743 33.6886 6.04503L67.738 27.0364C68.0949 26.4575 67.3824 27.7861 65.876 29.1824C64.4778 30.4784 58.2854 35.4449 49.4023 32.8634L60.5647 -5.54753ZM33.8212 5.8329L30.102 11.7002L63.8862 33.1157L67.6054 27.2485L33.8212 5.8329ZM66.9941 22.4079V15.1841H26.9941V22.4079H66.9941ZM66.9898 14.7697C66.9342 12.0859 66.4613 7.87331 64.0727 3.54195C61.3612 -1.37499 56.8052 -5.24423 51.0423 -6.94685L39.7087 31.4139C34.979 30.0165 31.215 26.7917 29.0459 22.8582C27.1996 19.5104 27.0195 16.6205 26.9984 15.5985L66.9898 14.7697ZM51.0423 -6.94685C47.112 -8.10806 42.0137 -8.38767 36.743 -6.29233C31.6046 -4.24957 28.1723 -0.695109 26.0338 2.5004L59.2762 24.7477C58.1363 26.4509 55.72 29.2084 51.52 30.8781C47.1877 32.6004 42.9503 32.3716 39.7087 31.4139L51.0423 -6.94685ZM25.7635 2.91532L17.4641 16.0064L51.2472 37.4238L59.5465 24.3328L25.7635 2.91532ZM52.0075 17.3125C52.4202 18.0872 52.6682 19.0037 52.6682 20H12.6682C12.6682 25.6765 14.0871 31.2055 16.7037 36.1178L52.0075 17.3125ZM52.6682 20C52.6682 23.1833 50.1139 25.688 46.9941 25.688V-14.312C28.102 -14.312 12.6682 1.01248 12.6682 20H52.6682ZM46.9941 25.688C43.8742 25.688 41.3199 23.1833 41.3199 20H81.3199C81.3199 1.01248 65.8861 -14.312 46.9941 -14.312V25.688ZM41.3199 20V20.0339H81.3199V20H41.3199ZM41.3199 20.0339V20.0678H81.3199V20.0339H41.3199ZM41.3403 20.9695C41.228 18.4821 41.8804 11.1893 49.2441 6.52726L70.6407 40.3235C79.933 34.4405 81.5496 24.7059 81.2996 19.1662L41.3403 20.9695ZM84.4881 20V19.9661H44.4881V20H84.4881ZM84.4881 19.9661V19.9322H44.4881V19.9661H84.4881ZM84.488 19.8604C84.4141 -0.746501 67.6283 -17.5 46.9941 -17.5V22.5C45.5758 22.5 44.4933 21.4151 44.4883 20.0039L84.488 19.8604ZM46.9941 -17.5C26.3145 -17.5 9.5 -0.719899 9.5 20H49.5C49.5 21.3885 48.3889 22.5 46.9941 22.5V-17.5ZM9.5 20C9.5 40.6608 26.2893 57.5 46.9941 57.5V17.5C48.4141 17.5 49.5 18.6028 49.5 20H9.5ZM46.9941 57.5C56.5106 57.5 65.583 53.9104 72.5143 47.4473L45.2355 18.1922C45.4421 17.9995 45.7182 17.8168 46.0493 17.6863C46.381 17.5554 46.7096 17.5 46.9941 17.5V57.5ZM72.5186 47.4433C81.1963 39.3471 81.85 25.5445 73.3574 16.7161L44.5301 44.4467C37.2772 36.907 37.8621 25.0715 45.2312 18.1962L72.5186 47.4433ZM73.7468 17.1326C65.4734 8.02611 51.951 8.01226 43.4829 15.474L69.9277 45.4853C62.7682 51.7939 51.2433 51.8479 44.1407 44.0302L73.7468 17.1326ZM56.7053 30.4796C42.671 16.2305 42.6714 16.2302 42.6717 16.2298C42.6717 16.2299 42.6717 16.2298 42.6717 16.2298C42.6717 16.2298 42.6717 16.2298 42.6717 16.2298C42.6717 16.2298 42.6717 16.2298 42.6717 16.2298C42.6717 16.2298 42.6717 16.2298 42.6717 16.2298C42.6717 16.2298 42.6717 16.2298 42.6717 16.2298C42.6717 16.2298 42.6717 16.2298 42.6717 16.2298C42.6717 16.2298 42.6717 16.2298 42.6717 16.2298C42.6716 16.2299 42.6718 16.2297 42.6717 16.2298C42.6717 16.2299 42.6717 16.2298 42.6717 16.2298C42.6717 16.2298 42.6717 16.2298 42.6717 16.2298C42.6717 16.2298 42.6717 16.2298 42.6717 16.2298C42.6717 16.2299 42.6717 16.2298 42.6717 16.2299C42.6717 16.2299 42.6717 16.2298 42.6717 16.2299C42.6717 16.2299 42.6717 16.2299 42.6717 16.2299C42.6716 16.2299 42.6717 16.2299 42.6716 16.2299C42.6715 16.2301 42.6716 16.23 42.6712 16.2304C42.6708 16.2308 42.6706 16.2309 42.6699 16.2316C42.6569 16.2445 42.6809 16.2208 42.6674 16.2341C42.653 16.2483 42.6646 16.2369 42.6373 16.2638L70.7045 44.7634C70.728 44.7403 70.7242 44.7441 70.7347 44.7337C70.7379 44.7305 70.7368 44.7316 70.7384 44.73C70.7387 44.7297 70.7383 44.7301 70.7385 44.7299C70.7386 44.7298 70.7385 44.7299 70.7386 44.7299C70.7391 44.7293 70.738 44.7304 70.7386 44.7298C70.7386 44.7298 70.7386 44.7299 70.7386 44.7298C70.7386 44.7298 70.7386 44.7298 70.7386 44.7298C70.7386 44.7298 70.7386 44.7298 70.7386 44.7298C70.7386 44.7298 70.7386 44.7298 70.7386 44.7298C70.7387 44.7298 70.7387 44.7298 70.7387 44.7298C70.7387 44.7297 70.7387 44.7298 70.7387 44.7297C70.7387 44.7297 70.7387 44.7297 70.7388 44.7297C70.74 44.7285 70.7377 44.7307 70.7389 44.7295C70.739 44.7295 70.7389 44.7295 70.739 44.7295C70.739 44.7295 70.739 44.7295 70.739 44.7295C70.739 44.7295 70.739 44.7294 70.739 44.7295C70.739 44.7295 70.739 44.7295 70.739 44.7295C70.739 44.7295 70.739 44.7295 70.739 44.7295C70.739 44.7295 70.739 44.7294 70.7391 44.7294C70.7393 44.7291 70.7397 44.7287 56.7053 30.4796ZM43.0272 15.89C44.1154 14.8747 45.4797 14.3459 46.9252 14.3459V54.3459C55.6025 54.3459 63.992 51.0362 70.3146 45.1371L43.0272 15.89ZM46.9252 14.3459C48.6035 14.3459 50.1527 15.1071 51.1697 16.2405L21.3985 42.9552C27.65 49.922 36.7753 54.3459 46.9252 54.3459V14.3459ZM53.1818 40.2969L60.6546 28.4946L26.8593 7.09649L19.3865 18.8988L53.1818 40.2969ZM23.757 17.7955V23.2558H63.757V17.7955H23.757ZM23.757 23.2558C23.757 27.0262 24.484 32.0377 27.5671 36.8244C30.8916 41.9859 35.7167 44.9596 40.3344 46.2329L50.9676 7.67212C54.7244 8.70807 58.6025 11.1391 61.1952 15.1645C63.5465 18.815 63.757 22.0968 63.757 23.2558H23.757ZM40.3344 46.2329C44.7509 47.4508 50.2784 47.4772 55.7662 44.8892C60.8298 42.5011 64.0737 38.7261 66.0742 35.6028L32.3908 14.029C32.9793 13.1101 34.863 10.5221 38.7041 8.71063C42.9693 6.69913 47.4121 6.69168 50.9676 7.67212L40.3344 46.2329ZM66.1842 35.429L70.2823 28.8835L36.3787 7.65724L32.2807 14.2028L66.1842 35.429ZM69.8926 29.4818C70.1314 29.1291 70.3152 28.8357 70.3768 28.7374C70.4974 28.5448 70.389 28.7183 70.3181 28.8281C70.2161 28.986 69.952 29.3902 69.5726 29.8926C69.1893 30.4003 68.5826 31.1506 67.743 31.9775L39.6757 3.4779C38.7671 4.37265 38.0959 5.1993 37.6501 5.78964C37.2083 6.37473 36.884 6.86791 36.7217 7.11911C36.5905 7.32212 36.4218 7.5932 36.4801 7.5002C36.4832 7.49534 36.5148 7.44483 36.5602 7.37414C36.6071 7.30127 36.6783 7.19201 36.7684 7.05887L69.8926 29.4818ZM33.7093 17.7277V21.0514H73.7093V17.7277H33.7093ZM33.7093 21.0514C33.7093 28.7041 37.0388 38.5556 46.7712 43.9231L66.0884 8.8967C72.3772 12.365 73.7093 18.2823 73.7093 21.0514H33.7093ZM46.5387 43.7928C55.1506 48.6931 64.8991 47.581 71.947 43.2982L51.175 9.11457C54.9858 6.79885 60.8085 5.89028 66.3209 9.02696L46.5387 43.7928ZM72.4044 43.0118C81.2071 37.332 84.9162 27.8113 84.4618 18.9731L44.5145 21.0269C44.4323 19.4274 44.6851 17.3152 45.746 15.0724C46.8298 12.7812 48.5585 10.7941 50.7176 9.40101L72.4044 43.0118Z" fill="url(#paint1_linear_10_763)" mask="url(#path-1-inside-1_10_763)"/>
<path d="M59.9424 23.4254L70.2555 40.5613L70.4495 40.4446L70.6407 40.3235L59.9424 23.4254ZM58.0484 23.561L47.8739 40.7797L48.1134 40.9212L48.3568 41.056L58.0484 23.561ZM54.9835 13.6579L49.4023 32.8634L49.5539 32.9075L49.7061 32.9491L54.9835 13.6579ZM50.7133 16.5407L67.6054 27.2485L67.6724 27.1428L67.738 27.0364L50.7133 16.5407ZM46.9941 22.4079H26.9941V91.315L63.8862 33.1157L46.9941 22.4079ZM46.9941 15.1841H66.9941V14.9769L66.9898 14.7697L46.9941 15.1841ZM45.3755 12.2335L39.7087 31.4139L45.3755 12.2335ZM42.655 13.624L26.0338 2.5004L25.8961 2.70618L25.7635 2.91532L42.655 13.624ZM34.3556 26.7151L16.7037 36.1178L32.8538 66.4368L51.2472 37.4238L34.3556 26.7151ZM61.3199 20.0678H41.3199V20.5189L41.3403 20.9695L61.3199 20.0678ZM64.4881 20H44.4881V20.5138L44.5145 21.0269L64.4881 20ZM64.4881 19.9322H84.4881V19.8963L84.488 19.8604L64.4881 19.9322ZM58.8749 32.8198L72.5143 47.4473L72.5186 47.4433L58.8749 32.8198ZM58.9438 30.5814L44.1407 44.0302L44.3325 44.2413L44.5301 44.4467L58.9438 30.5814ZM56.7053 30.4796L43.4829 15.474L43.0668 15.8407L42.6717 16.2298L56.7053 30.4796ZM56.6709 30.5136L70.3146 45.1371L70.5121 44.9529L70.7045 44.7634L56.6709 30.5136ZM36.2841 29.5979L19.3865 18.8988L11.2885 31.6885L21.3985 42.9552L36.2841 29.5979ZM43.757 17.7955H63.757V-51.1781L26.8593 7.09649L43.757 17.7955ZM49.2325 24.8159L66.0742 35.6028L66.1297 35.5162L66.1842 35.429L49.2325 24.8159ZM53.3305 18.2703L36.7684 7.05887L36.5682 7.35458L36.3787 7.65724L53.3305 18.2703ZM53.7093 17.7277H73.7093V-30.0394L39.6757 3.4779L53.7093 17.7277ZM56.4298 26.4099L66.3209 9.02696L66.2051 8.96105L66.0884 8.8967L56.4298 26.4099ZM61.561 26.2064L71.947 43.2982L72.1776 43.1581L72.4044 43.0118L61.561 26.2064ZM49.6293 6.28946C53.4802 3.97187 60.5148 2.06361 67.74 6.06611L48.3568 41.056C56.6839 45.6689 65.165 43.625 70.2555 40.5613L49.6293 6.28946ZM68.2228 6.34243C76.2301 11.0739 76.9464 18.8346 76.9464 20.9835H36.9464C36.9464 25.6421 38.4892 35.2342 47.8739 40.7797L68.2228 6.34243ZM76.9464 20.9835V17.1512H36.9464V20.9835H76.9464ZM76.9464 17.1512C76.9464 11.54 74.3756 -1.77195 60.2609 -5.63323L49.7061 32.9491C44.4266 31.5048 40.8566 27.9822 38.963 24.5872C37.2258 21.4724 36.9464 18.6865 36.9464 17.1512H76.9464ZM60.5647 -5.54753C49.5809 -8.73949 41.5461 -2.80637 38.6843 -0.153808C35.7143 2.59909 33.9171 5.6743 33.6886 6.04503L67.738 27.0364C68.0949 26.4575 67.3824 27.7861 65.876 29.1824C64.4778 30.4784 58.2854 35.4449 49.4023 32.8634L60.5647 -5.54753ZM33.8212 5.8329L30.102 11.7002L63.8862 33.1157L67.6054 27.2485L33.8212 5.8329ZM66.9941 22.4079V15.1841H26.9941V22.4079H66.9941ZM66.9898 14.7697C66.9342 12.0859 66.4613 7.87331 64.0727 3.54195C61.3612 -1.37499 56.8052 -5.24423 51.0423 -6.94685L39.7087 31.4139C34.979 30.0165 31.215 26.7917 29.0459 22.8582C27.1996 19.5104 27.0195 16.6205 26.9984 15.5985L66.9898 14.7697ZM51.0423 -6.94685C47.112 -8.10806 42.0137 -8.38767 36.743 -6.29233C31.6046 -4.24957 28.1723 -0.695109 26.0338 2.5004L59.2762 24.7477C58.1363 26.4509 55.72 29.2084 51.52 30.8781C47.1877 32.6004 42.9503 32.3716 39.7087 31.4139L51.0423 -6.94685ZM25.7635 2.91532L17.4641 16.0064L51.2472 37.4238L59.5465 24.3328L25.7635 2.91532ZM52.0075 17.3125C52.4202 18.0872 52.6682 19.0037 52.6682 20H12.6682C12.6682 25.6765 14.0871 31.2055 16.7037 36.1178L52.0075 17.3125ZM52.6682 20C52.6682 23.1833 50.1139 25.688 46.9941 25.688V-14.312C28.102 -14.312 12.6682 1.01248 12.6682 20H52.6682ZM46.9941 25.688C43.8742 25.688 41.3199 23.1833 41.3199 20H81.3199C81.3199 1.01248 65.8861 -14.312 46.9941 -14.312V25.688ZM41.3199 20V20.0339H81.3199V20H41.3199ZM41.3199 20.0339V20.0678H81.3199V20.0339H41.3199ZM41.3403 20.9695C41.228 18.4821 41.8804 11.1893 49.2441 6.52726L70.6407 40.3235C79.933 34.4405 81.5496 24.7059 81.2996 19.1662L41.3403 20.9695ZM84.4881 20V19.9661H44.4881V20H84.4881ZM84.4881 19.9661V19.9322H44.4881V19.9661H84.4881ZM84.488 19.8604C84.4141 -0.746501 67.6283 -17.5 46.9941 -17.5V22.5C45.5758 22.5 44.4933 21.4151 44.4883 20.0039L84.488 19.8604ZM46.9941 -17.5C26.3145 -17.5 9.5 -0.719899 9.5 20H49.5C49.5 21.3885 48.3889 22.5 46.9941 22.5V-17.5ZM9.5 20C9.5 40.6608 26.2893 57.5 46.9941 57.5V17.5C48.4141 17.5 49.5 18.6028 49.5 20H9.5ZM46.9941 57.5C56.5106 57.5 65.583 53.9104 72.5143 47.4473L45.2355 18.1922C45.4421 17.9995 45.7182 17.8168 46.0493 17.6863C46.381 17.5554 46.7096 17.5 46.9941 17.5V57.5ZM72.5186 47.4433C81.1963 39.3471 81.85 25.5445 73.3574 16.7161L44.5301 44.4467C37.2772 36.907 37.8621 25.0715 45.2312 18.1962L72.5186 47.4433ZM73.7468 17.1326C65.4734 8.02611 51.951 8.01226 43.4829 15.474L69.9277 45.4853C62.7682 51.7939 51.2433 51.8479 44.1407 44.0302L73.7468 17.1326ZM56.7053 30.4796C42.671 16.2305 42.6714 16.2302 42.6717 16.2298C42.6717 16.2299 42.6717 16.2298 42.6717 16.2298C42.6717 16.2298 42.6717 16.2298 42.6717 16.2298C42.6717 16.2298 42.6717 16.2298 42.6717 16.2298C42.6717 16.2298 42.6717 16.2298 42.6717 16.2298C42.6717 16.2298 42.6717 16.2298 42.6717 16.2298C42.6717 16.2298 42.6717 16.2298 42.6717 16.2298C42.6717 16.2298 42.6717 16.2298 42.6717 16.2298C42.6716 16.2299 42.6718 16.2297 42.6717 16.2298C42.6717 16.2299 42.6717 16.2298 42.6717 16.2298C42.6717 16.2298 42.6717 16.2298 42.6717 16.2298C42.6717 16.2298 42.6717 16.2298 42.6717 16.2298C42.6717 16.2299 42.6717 16.2298 42.6717 16.2299C42.6717 16.2299 42.6717 16.2298 42.6717 16.2299C42.6717 16.2299 42.6717 16.2299 42.6717 16.2299C42.6716 16.2299 42.6717 16.2299 42.6716 16.2299C42.6715 16.2301 42.6716 16.23 42.6712 16.2304C42.6708 16.2308 42.6706 16.2309 42.6699 16.2316C42.6569 16.2445 42.6809 16.2208 42.6674 16.2341C42.653 16.2483 42.6646 16.2369 42.6373 16.2638L70.7045 44.7634C70.728 44.7403 70.7242 44.7441 70.7347 44.7337C70.7379 44.7305 70.7368 44.7316 70.7384 44.73C70.7387 44.7297 70.7383 44.7301 70.7385 44.7299C70.7386 44.7298 70.7385 44.7299 70.7386 44.7299C70.7391 44.7293 70.738 44.7304 70.7386 44.7298C70.7386 44.7298 70.7386 44.7299 70.7386 44.7298C70.7386 44.7298 70.7386 44.7298 70.7386 44.7298C70.7386 44.7298 70.7386 44.7298 70.7386 44.7298C70.7386 44.7298 70.7386 44.7298 70.7386 44.7298C70.7387 44.7298 70.7387 44.7298 70.7387 44.7298C70.7387 44.7297 70.7387 44.7298 70.7387 44.7297C70.7387 44.7297 70.7387 44.7297 70.7388 44.7297C70.74 44.7285 70.7377 44.7307 70.7389 44.7295C70.739 44.7295 70.7389 44.7295 70.739 44.7295C70.739 44.7295 70.739 44.7295 70.739 44.7295C70.739 44.7295 70.739 44.7294 70.739 44.7295C70.739 44.7295 70.739 44.7295 70.739 44.7295C70.739 44.7295 70.739 44.7295 70.739 44.7295C70.739 44.7295 70.739 44.7294 70.7391 44.7294C70.7393 44.7291 70.7397 44.7287 56.7053 30.4796ZM43.0272 15.89C44.1154 14.8747 45.4797 14.3459 46.9252 14.3459V54.3459C55.6025 54.3459 63.992 51.0362 70.3146 45.1371L43.0272 15.89ZM46.9252 14.3459C48.6035 14.3459 50.1527 15.1071 51.1697 16.2405L21.3985 42.9552C27.65 49.922 36.7753 54.3459 46.9252 54.3459V14.3459ZM53.1818 40.2969L60.6546 28.4946L26.8593 7.09649L19.3865 18.8988L53.1818 40.2969ZM23.757 17.7955V23.2558H63.757V17.7955H23.757ZM23.757 23.2558C23.757 27.0262 24.484 32.0377 27.5671 36.8244C30.8916 41.9859 35.7167 44.9596 40.3344 46.2329L50.9676 7.67212C54.7244 8.70807 58.6025 11.1391 61.1952 15.1645C63.5465 18.815 63.757 22.0968 63.757 23.2558H23.757ZM40.3344 46.2329C44.7509 47.4508 50.2784 47.4772 55.7662 44.8892C60.8298 42.5011 64.0737 38.7261 66.0742 35.6028L32.3908 14.029C32.9793 13.1101 34.863 10.5221 38.7041 8.71063C42.9693 6.69913 47.4121 6.69168 50.9676 7.67212L40.3344 46.2329ZM66.1842 35.429L70.2823 28.8835L36.3787 7.65724L32.2807 14.2028L66.1842 35.429ZM69.8926 29.4818C70.1314 29.1291 70.3152 28.8357 70.3768 28.7374C70.4974 28.5448 70.389 28.7183 70.3181 28.8281C70.2161 28.986 69.952 29.3902 69.5726 29.8926C69.1893 30.4003 68.5826 31.1506 67.743 31.9775L39.6757 3.4779C38.7671 4.37265 38.0959 5.1993 37.6501 5.78964C37.2083 6.37473 36.884 6.86791 36.7217 7.11911C36.5905 7.32212 36.4218 7.5932 36.4801 7.5002C36.4832 7.49534 36.5148 7.44483 36.5602 7.37414C36.6071 7.30127 36.6783 7.19201 36.7684 7.05887L69.8926 29.4818ZM33.7093 17.7277V21.0514H73.7093V17.7277H33.7093ZM33.7093 21.0514C33.7093 28.7041 37.0388 38.5556 46.7712 43.9231L66.0884 8.8967C72.3772 12.365 73.7093 18.2823 73.7093 21.0514H33.7093ZM46.5387 43.7928C55.1506 48.6931 64.8991 47.581 71.947 43.2982L51.175 9.11457C54.9858 6.79885 60.8085 5.89028 66.3209 9.02696L46.5387 43.7928ZM72.4044 43.0118C81.2071 37.332 84.9162 27.8113 84.4618 18.9731L44.5145 21.0269C44.4323 19.4274 44.6851 17.3152 45.746 15.0724C46.8298 12.7812 48.5585 10.7941 50.7176 9.40101L72.4044 43.0118Z" fill="#D1D2D7" fill-opacity="0.3" mask="url(#path-1-inside-1_10_763)"/>
<path d="M13.39 53.1C12.7767 53.1 12.2667 52.9867 11.86 52.76C11.46 52.5333 11.1567 52.2167 10.95 51.81C10.7433 51.4033 10.63 50.93 10.61 50.39C10.6033 50.1167 10.6 49.8233 10.6 49.51C10.6 49.1967 10.6033 48.8967 10.61 48.61C10.63 48.07 10.7433 47.5967 10.95 47.19C11.1567 46.7833 11.46 46.4667 11.86 46.24C12.2667 46.0133 12.7767 45.9 13.39 45.9C13.85 45.9 14.2533 45.9633 14.6 46.09C14.9467 46.2167 15.2333 46.3867 15.46 46.6C15.6933 46.8133 15.87 47.0533 15.99 47.32C16.11 47.58 16.1767 47.85 16.19 48.13C16.1967 48.19 16.1767 48.24 16.13 48.28C16.09 48.32 16.04 48.34 15.98 48.34H15.43C15.37 48.34 15.3167 48.3233 15.27 48.29C15.23 48.2567 15.2 48.1967 15.18 48.11C15.0667 47.59 14.8533 47.2333 14.54 47.04C14.2333 46.8467 13.8467 46.75 13.38 46.75C12.8467 46.75 12.4233 46.9033 12.11 47.21C11.7967 47.51 11.6267 47.9933 11.6 48.66C11.58 49.2067 11.58 49.7667 11.6 50.34C11.6267 51.0067 11.7967 51.4933 12.11 51.8C12.4233 52.1 12.8467 52.25 13.38 52.25C13.8467 52.25 14.2333 52.1533 14.54 51.96C14.8533 51.7667 15.0667 51.41 15.18 50.89C15.2 50.8033 15.23 50.7433 15.27 50.71C15.3167 50.6767 15.37 50.66 15.43 50.66H15.98C16.04 50.66 16.09 50.68 16.13 50.72C16.1767 50.76 16.1967 50.81 16.19 50.87C16.1767 51.15 16.11 51.4233 15.99 51.69C15.87 51.95 15.6933 52.1867 15.46 52.4C15.2333 52.6133 14.9467 52.7833 14.6 52.91C14.2533 53.0367 13.85 53.1 13.39 53.1ZM19.5302 53.1C19.0235 53.1 18.6002 53.0033 18.2602 52.81C17.9202 52.6167 17.6602 52.35 17.4802 52.01C17.3002 51.6633 17.2002 51.27 17.1802 50.83C17.1735 50.7167 17.1702 50.5733 17.1702 50.4C17.1702 50.22 17.1735 50.0767 17.1802 49.97C17.2002 49.5233 17.3002 49.13 17.4802 48.79C17.6668 48.45 17.9302 48.1833 18.2702 47.99C18.6102 47.7967 19.0302 47.7 19.5302 47.7C20.0302 47.7 20.4502 47.7967 20.7902 47.99C21.1302 48.1833 21.3902 48.45 21.5702 48.79C21.7568 49.13 21.8602 49.5233 21.8802 49.97C21.8868 50.0767 21.8902 50.22 21.8902 50.4C21.8902 50.5733 21.8868 50.7167 21.8802 50.83C21.8602 51.27 21.7602 51.6633 21.5802 52.01C21.4002 52.35 21.1402 52.6167 20.8002 52.81C20.4602 53.0033 20.0368 53.1 19.5302 53.1ZM19.5302 52.33C19.9435 52.33 20.2735 52.2 20.5202 51.94C20.7668 51.6733 20.9002 51.2867 20.9202 50.78C20.9268 50.68 20.9302 50.5533 20.9302 50.4C20.9302 50.2467 20.9268 50.12 20.9202 50.02C20.9002 49.5133 20.7668 49.13 20.5202 48.87C20.2735 48.6033 19.9435 48.47 19.5302 48.47C19.1168 48.47 18.7835 48.6033 18.5302 48.87C18.2835 49.13 18.1535 49.5133 18.1402 50.02C18.1335 50.12 18.1302 50.2467 18.1302 50.4C18.1302 50.5533 18.1335 50.68 18.1402 50.78C18.1535 51.2867 18.2835 51.6733 18.5302 51.94C18.7835 52.2 19.1168 52.33 19.5302 52.33ZM23.3723 53C23.3057 53 23.249 52.98 23.2023 52.94C23.1623 52.8933 23.1423 52.8367 23.1423 52.77V48.03C23.1423 47.9633 23.1623 47.91 23.2023 47.87C23.249 47.8233 23.3057 47.8 23.3723 47.8H23.8523C23.919 47.8 23.9723 47.8233 24.0123 47.87C24.0523 47.91 24.0723 47.9633 24.0723 48.03V52.77C24.0723 52.8367 24.0523 52.8933 24.0123 52.94C23.9723 52.98 23.919 53 23.8523 53H23.3723ZM23.2923 46.83C23.2257 46.83 23.169 46.81 23.1223 46.77C23.0823 46.7233 23.0623 46.6667 23.0623 46.6V46.06C23.0623 45.9933 23.0823 45.94 23.1223 45.9C23.169 45.8533 23.2257 45.83 23.2923 45.83H23.9223C23.989 45.83 24.0423 45.8533 24.0823 45.9C24.129 45.94 24.1523 45.9933 24.1523 46.06V46.6C24.1523 46.6667 24.129 46.7233 24.0823 46.77C24.0423 46.81 23.989 46.83 23.9223 46.83H23.2923ZM25.8919 53C25.8252 53 25.7685 52.98 25.7219 52.94C25.6819 52.8933 25.6619 52.8367 25.6619 52.77V48.03C25.6619 47.9633 25.6819 47.91 25.7219 47.87C25.7685 47.8233 25.8252 47.8 25.8919 47.8H26.3619C26.4285 47.8 26.4819 47.8233 26.5219 47.87C26.5685 47.91 26.5919 47.9633 26.5919 48.03V48.47C26.7652 48.2433 26.9819 48.06 27.2419 47.92C27.5085 47.7733 27.8485 47.7 28.2619 47.7C28.6952 47.7 29.0619 47.7967 29.3619 47.99C29.6685 48.1767 29.8985 48.44 30.0519 48.78C30.2052 49.1133 30.2819 49.5033 30.2819 49.95V52.77C30.2819 52.8367 30.2619 52.8933 30.2219 52.94C30.1819 52.98 30.1285 53 30.0619 53H29.5619C29.4952 53 29.4385 52.98 29.3919 52.94C29.3519 52.8933 29.3319 52.8367 29.3319 52.77V50C29.3319 49.5333 29.2185 49.17 28.9919 48.91C28.7652 48.6433 28.4319 48.51 27.9919 48.51C27.5785 48.51 27.2452 48.6433 26.9919 48.91C26.7452 49.17 26.6219 49.5333 26.6219 50V52.77C26.6219 52.8367 26.5985 52.8933 26.5519 52.94C26.5119 52.98 26.4585 53 26.3919 53H25.8919ZM32.0863 53C32.0197 53 31.963 52.98 31.9163 52.94C31.8763 52.8933 31.8563 52.8367 31.8563 52.77V46.24C31.8563 46.1667 31.8763 46.11 31.9163 46.07C31.963 46.0233 32.0197 46 32.0863 46H32.5863C32.6663 46 32.7263 46.02 32.7663 46.06C32.8063 46.1 32.8297 46.1333 32.8363 46.16L34.9563 50.2L37.0863 46.16C37.0997 46.1333 37.123 46.1 37.1563 46.06C37.1963 46.02 37.2563 46 37.3363 46H37.8263C37.8997 46 37.9563 46.0233 37.9963 46.07C38.043 46.11 38.0663 46.1667 38.0663 46.24V52.77C38.0663 52.8367 38.043 52.8933 37.9963 52.94C37.9563 52.98 37.8997 53 37.8263 53H37.3363C37.2697 53 37.213 52.98 37.1663 52.94C37.1263 52.8933 37.1063 52.8367 37.1063 52.77V47.85L35.4363 51.11C35.4097 51.1767 35.3697 51.23 35.3163 51.27C35.263 51.3033 35.1963 51.32 35.1163 51.32H34.8063C34.7197 51.32 34.6497 51.3033 34.5963 51.27C34.5497 51.23 34.5097 51.1767 34.4763 51.11L32.8063 47.85V52.77C32.8063 52.8367 32.783 52.8933 32.7363 52.94C32.6963 52.98 32.643 53 32.5763 53H32.0863ZM41.1158 53.1C40.7824 53.1 40.4791 53.0333 40.2058 52.9C39.9324 52.7667 39.7124 52.5867 39.5458 52.36C39.3791 52.1333 39.2958 51.8767 39.2958 51.59C39.2958 51.13 39.4824 50.7633 39.8558 50.49C40.2291 50.2167 40.7158 50.0367 41.3158 49.95L42.8058 49.74V49.45C42.8058 49.13 42.7124 48.88 42.5258 48.7C42.3458 48.52 42.0491 48.43 41.6358 48.43C41.3358 48.43 41.0924 48.49 40.9058 48.61C40.7258 48.73 40.5991 48.8833 40.5258 49.07C40.4858 49.17 40.4158 49.22 40.3158 49.22H39.8658C39.7924 49.22 39.7358 49.2 39.6958 49.16C39.6624 49.1133 39.6458 49.06 39.6458 49C39.6458 48.9 39.6824 48.7767 39.7558 48.63C39.8358 48.4833 39.9558 48.34 40.1158 48.2C40.2758 48.06 40.4791 47.9433 40.7258 47.85C40.9791 47.75 41.2858 47.7 41.6458 47.7C42.0458 47.7 42.3824 47.7533 42.6558 47.86C42.9291 47.96 43.1424 48.0967 43.2958 48.27C43.4558 48.4433 43.5691 48.64 43.6358 48.86C43.7091 49.08 43.7458 49.3033 43.7458 49.53V52.77C43.7458 52.8367 43.7224 52.8933 43.6758 52.94C43.6358 52.98 43.5824 53 43.5158 53H43.0558C42.9824 53 42.9258 52.98 42.8858 52.94C42.8458 52.8933 42.8258 52.8367 42.8258 52.77V52.34C42.7391 52.46 42.6224 52.58 42.4758 52.7C42.3291 52.8133 42.1458 52.91 41.9258 52.99C41.7058 53.0633 41.4358 53.1 41.1158 53.1ZM41.3258 52.35C41.5991 52.35 41.8491 52.2933 42.0758 52.18C42.3024 52.06 42.4791 51.8767 42.6058 51.63C42.7391 51.3833 42.8058 51.0733 42.8058 50.7V50.42L41.6458 50.59C41.1724 50.6567 40.8158 50.77 40.5758 50.93C40.3358 51.0833 40.2158 51.28 40.2158 51.52C40.2158 51.7067 40.2691 51.8633 40.3758 51.99C40.4891 52.11 40.6291 52.2 40.7958 52.26C40.9691 52.32 41.1458 52.35 41.3258 52.35ZM45.4134 53C45.3467 53 45.29 52.98 45.2434 52.94C45.2034 52.8933 45.1834 52.8367 45.1834 52.77V48.04C45.1834 47.9733 45.2034 47.9167 45.2434 47.87C45.29 47.8233 45.3467 47.8 45.4134 47.8H45.8734C45.94 47.8 45.9967 47.8233 46.0434 47.87C46.09 47.9167 46.1134 47.9733 46.1134 48.04V48.48C46.2467 48.2533 46.43 48.0833 46.6634 47.97C46.8967 47.8567 47.1767 47.8 47.5034 47.8H47.9034C47.97 47.8 48.0234 47.8233 48.0634 47.87C48.1034 47.91 48.1234 47.9633 48.1234 48.03V48.44C48.1234 48.5067 48.1034 48.56 48.0634 48.6C48.0234 48.64 47.97 48.66 47.9034 48.66H47.3034C46.9434 48.66 46.66 48.7667 46.4534 48.98C46.2467 49.1867 46.1434 49.47 46.1434 49.83V52.77C46.1434 52.8367 46.12 52.8933 46.0734 52.94C46.0267 52.98 45.97 53 45.9034 53H45.4134ZM49.2222 53C49.1555 53 49.0989 52.98 49.0522 52.94C49.0122 52.8933 48.9922 52.8367 48.9922 52.77V46.13C48.9922 46.0633 49.0122 46.01 49.0522 45.97C49.0989 45.9233 49.1555 45.9 49.2222 45.9H49.6922C49.7589 45.9 49.8122 45.9233 49.8522 45.97C49.8989 46.01 49.9222 46.0633 49.9222 46.13V49.61L51.8922 47.97C51.9722 47.9033 52.0322 47.86 52.0722 47.84C52.1189 47.8133 52.1922 47.8 52.2922 47.8H52.8222C52.8822 47.8 52.9322 47.82 52.9722 47.86C53.0122 47.9 53.0322 47.95 53.0322 48.01C53.0322 48.0367 53.0222 48.0667 53.0022 48.1C52.9889 48.1333 52.9589 48.1667 52.9122 48.2L50.6022 50.12L53.1622 52.61C53.2422 52.6767 53.2822 52.7367 53.2822 52.79C53.2822 52.85 53.2622 52.9 53.2222 52.94C53.1822 52.98 53.1322 53 53.0722 53H52.5522C52.4522 53 52.3789 52.99 52.3322 52.97C52.2855 52.9433 52.2255 52.8967 52.1522 52.83L49.9222 50.7V52.77C49.9222 52.8367 49.8989 52.8933 49.8522 52.94C49.8122 52.98 49.7589 53 49.6922 53H49.2222ZM55.9643 53.1C55.2776 53.1 54.731 52.89 54.3243 52.47C53.9176 52.0433 53.6943 51.4633 53.6543 50.73C53.6476 50.6433 53.6443 50.5333 53.6443 50.4C53.6443 50.26 53.6476 50.1467 53.6543 50.06C53.681 49.5867 53.791 49.1733 53.9843 48.82C54.1776 48.46 54.441 48.1833 54.7743 47.99C55.1143 47.7967 55.511 47.7 55.9643 47.7C56.471 47.7 56.8943 47.8067 57.2343 48.02C57.581 48.2333 57.8443 48.5367 58.0243 48.93C58.2043 49.3233 58.2943 49.7833 58.2943 50.31V50.48C58.2943 50.5533 58.271 50.61 58.2243 50.65C58.1843 50.69 58.131 50.71 58.0643 50.71H54.6043C54.6043 50.7167 54.6043 50.73 54.6043 50.75C54.6043 50.77 54.6043 50.7867 54.6043 50.8C54.6176 51.0733 54.6776 51.33 54.7843 51.57C54.891 51.8033 55.0443 51.9933 55.2443 52.14C55.4443 52.2867 55.6843 52.36 55.9643 52.36C56.2043 52.36 56.4043 52.3233 56.5643 52.25C56.7243 52.1767 56.8543 52.0967 56.9543 52.01C57.0543 51.9167 57.121 51.8467 57.1543 51.8C57.2143 51.7133 57.261 51.6633 57.2943 51.65C57.3276 51.63 57.381 51.62 57.4543 51.62H57.9343C58.001 51.62 58.0543 51.64 58.0943 51.68C58.141 51.7133 58.161 51.7633 58.1543 51.83C58.1476 51.93 58.0943 52.0533 57.9943 52.2C57.8943 52.34 57.751 52.48 57.5643 52.62C57.3776 52.76 57.151 52.8767 56.8843 52.97C56.6176 53.0567 56.311 53.1 55.9643 53.1ZM54.6043 50.02H57.3443V49.99C57.3443 49.69 57.2876 49.4233 57.1743 49.19C57.0676 48.9567 56.911 48.7733 56.7043 48.64C56.4976 48.5 56.251 48.43 55.9643 48.43C55.6776 48.43 55.431 48.5 55.2243 48.64C55.0243 48.7733 54.871 48.9567 54.7643 49.19C54.6576 49.4233 54.6043 49.69 54.6043 49.99V50.02ZM61.4907 53C61.1174 53 60.814 52.93 60.5807 52.79C60.3474 52.6433 60.1774 52.44 60.0707 52.18C59.964 51.9133 59.9107 51.6 59.9107 51.24V48.6H59.1307C59.064 48.6 59.0074 48.58 58.9607 48.54C58.9207 48.4933 58.9007 48.4367 58.9007 48.37V48.03C58.9007 47.9633 58.9207 47.91 58.9607 47.87C59.0074 47.8233 59.064 47.8 59.1307 47.8H59.9107V46.13C59.9107 46.0633 59.9307 46.01 59.9707 45.97C60.0174 45.9233 60.074 45.9 60.1407 45.9H60.6107C60.6774 45.9 60.7307 45.9233 60.7707 45.97C60.8174 46.01 60.8407 46.0633 60.8407 46.13V47.8H62.0807C62.1474 47.8 62.2007 47.8233 62.2407 47.87C62.2874 47.91 62.3107 47.9633 62.3107 48.03V48.37C62.3107 48.4367 62.2874 48.4933 62.2407 48.54C62.2007 48.58 62.1474 48.6 62.0807 48.6H60.8407V51.17C60.8407 51.4833 60.894 51.73 61.0007 51.91C61.1074 52.09 61.2974 52.18 61.5707 52.18H62.1807C62.2474 52.18 62.3007 52.2033 62.3407 52.25C62.3874 52.29 62.4107 52.3433 62.4107 52.41V52.77C62.4107 52.8367 62.3874 52.8933 62.3407 52.94C62.3007 52.98 62.2474 53 62.1807 53H61.4907ZM66.017 53.1C65.4036 53.1 64.8936 52.9867 64.487 52.76C64.087 52.5333 63.7836 52.2167 63.577 51.81C63.3703 51.4033 63.257 50.93 63.237 50.39C63.2303 50.1167 63.227 49.8233 63.227 49.51C63.227 49.1967 63.2303 48.8967 63.237 48.61C63.257 48.07 63.3703 47.5967 63.577 47.19C63.7836 46.7833 64.087 46.4667 64.487 46.24C64.8936 46.0133 65.4036 45.9 66.017 45.9C66.477 45.9 66.8803 45.9633 67.227 46.09C67.5736 46.2167 67.8603 46.3867 68.087 46.6C68.3203 46.8133 68.497 47.0533 68.617 47.32C68.737 47.58 68.8036 47.85 68.817 48.13C68.8236 48.19 68.8036 48.24 68.757 48.28C68.717 48.32 68.667 48.34 68.607 48.34H68.057C67.997 48.34 67.9436 48.3233 67.897 48.29C67.857 48.2567 67.827 48.1967 67.807 48.11C67.6936 47.59 67.4803 47.2333 67.167 47.04C66.8603 46.8467 66.4736 46.75 66.007 46.75C65.4736 46.75 65.0503 46.9033 64.737 47.21C64.4236 47.51 64.2536 47.9933 64.227 48.66C64.207 49.2067 64.207 49.7667 64.227 50.34C64.2536 51.0067 64.4236 51.4933 64.737 51.8C65.0503 52.1 65.4736 52.25 66.007 52.25C66.4736 52.25 66.8603 52.1533 67.167 51.96C67.4803 51.7667 67.6936 51.41 67.807 50.89C67.827 50.8033 67.857 50.7433 67.897 50.71C67.9436 50.6767 67.997 50.66 68.057 50.66H68.607C68.667 50.66 68.717 50.68 68.757 50.72C68.8036 50.76 68.8236 50.81 68.817 50.87C68.8036 51.15 68.737 51.4233 68.617 51.69C68.497 51.95 68.3203 52.1867 68.087 52.4C67.8603 52.6133 67.5736 52.7833 67.227 52.91C66.8803 53.0367 66.477 53.1 66.017 53.1ZM71.4771 53.1C71.1438 53.1 70.8404 53.0333 70.5671 52.9C70.2938 52.7667 70.0738 52.5867 69.9071 52.36C69.7404 52.1333 69.6571 51.8767 69.6571 51.59C69.6571 51.13 69.8438 50.7633 70.2171 50.49C70.5904 50.2167 71.0771 50.0367 71.6771 49.95L73.1671 49.74V49.45C73.1671 49.13 73.0738 48.88 72.8871 48.7C72.7071 48.52 72.4104 48.43 71.9971 48.43C71.6971 48.43 71.4538 48.49 71.2671 48.61C71.0871 48.73 70.9604 48.8833 70.8871 49.07C70.8471 49.17 70.7771 49.22 70.6771 49.22H70.2271C70.1538 49.22 70.0971 49.2 70.0571 49.16C70.0238 49.1133 70.0071 49.06 70.0071 49C70.0071 48.9 70.0438 48.7767 70.1171 48.63C70.1971 48.4833 70.3171 48.34 70.4771 48.2C70.6371 48.06 70.8404 47.9433 71.0871 47.85C71.3404 47.75 71.6471 47.7 72.0071 47.7C72.4071 47.7 72.7438 47.7533 73.0171 47.86C73.2904 47.96 73.5038 48.0967 73.6571 48.27C73.8171 48.4433 73.9304 48.64 73.9971 48.86C74.0704 49.08 74.1071 49.3033 74.1071 49.53V52.77C74.1071 52.8367 74.0838 52.8933 74.0371 52.94C73.9971 52.98 73.9438 53 73.8771 53H73.4171C73.3438 53 73.2871 52.98 73.2471 52.94C73.2071 52.8933 73.1871 52.8367 73.1871 52.77V52.34C73.1004 52.46 72.9838 52.58 72.8371 52.7C72.6904 52.8133 72.5071 52.91 72.2871 52.99C72.0671 53.0633 71.7971 53.1 71.4771 53.1ZM71.6871 52.35C71.9604 52.35 72.2104 52.2933 72.4371 52.18C72.6638 52.06 72.8404 51.8767 72.9671 51.63C73.1004 51.3833 73.1671 51.0733 73.1671 50.7V50.42L72.0071 50.59C71.5338 50.6567 71.1771 50.77 70.9371 50.93C70.6971 51.0833 70.5771 51.28 70.5771 51.52C70.5771 51.7067 70.6304 51.8633 70.7371 51.99C70.8504 52.11 70.9904 52.2 71.1571 52.26C71.3304 52.32 71.5071 52.35 71.6871 52.35ZM75.7847 54.9C75.718 54.9 75.6614 54.8767 75.6147 54.83C75.5747 54.79 75.5547 54.7367 75.5547 54.67V48.03C75.5547 47.9633 75.5747 47.91 75.6147 47.87C75.6614 47.8233 75.718 47.8 75.7847 47.8H76.2447C76.3114 47.8 76.3647 47.8233 76.4047 47.87C76.4514 47.91 76.4747 47.9633 76.4747 48.03V48.47C76.6347 48.25 76.848 48.0667 77.1147 47.92C77.3814 47.7733 77.7147 47.7 78.1147 47.7C78.488 47.7 78.8047 47.7633 79.0647 47.89C79.3314 48.0167 79.548 48.19 79.7147 48.41C79.888 48.63 80.018 48.88 80.1047 49.16C80.1914 49.44 80.238 49.74 80.2447 50.06C80.2514 50.1667 80.2547 50.28 80.2547 50.4C80.2547 50.52 80.2514 50.6333 80.2447 50.74C80.238 51.0533 80.1914 51.3533 80.1047 51.64C80.018 51.92 79.888 52.17 79.7147 52.39C79.548 52.6033 79.3314 52.7767 79.0647 52.91C78.8047 53.0367 78.488 53.1 78.1147 53.1C77.728 53.1 77.4014 53.03 77.1347 52.89C76.8747 52.7433 76.6614 52.5633 76.4947 52.35V54.67C76.4947 54.7367 76.4747 54.79 76.4347 54.83C76.3947 54.8767 76.338 54.9 76.2647 54.9H75.7847ZM77.9047 52.29C78.2514 52.29 78.5214 52.2167 78.7147 52.07C78.9147 51.9167 79.058 51.72 79.1447 51.48C79.2314 51.2333 79.2814 50.97 79.2947 50.69C79.3014 50.4967 79.3014 50.3033 79.2947 50.11C79.2814 49.83 79.2314 49.57 79.1447 49.33C79.058 49.0833 78.9147 48.8867 78.7147 48.74C78.5214 48.5867 78.2514 48.51 77.9047 48.51C77.578 48.51 77.3114 48.5867 77.1047 48.74C76.9047 48.8933 76.7547 49.09 76.6547 49.33C76.5614 49.5633 76.508 49.8033 76.4947 50.05C76.488 50.1567 76.4847 50.2833 76.4847 50.43C76.4847 50.5767 76.488 50.7067 76.4947 50.82C76.5014 51.0533 76.5547 51.2833 76.6547 51.51C76.7614 51.7367 76.918 51.9233 77.1247 52.07C77.3314 52.2167 77.5914 52.29 77.9047 52.29Z" fill="url(#paint2_radial_10_763)"/>
<path d="M13.39 53.1C12.7767 53.1 12.2667 52.9867 11.86 52.76C11.46 52.5333 11.1567 52.2167 10.95 51.81C10.7433 51.4033 10.63 50.93 10.61 50.39C10.6033 50.1167 10.6 49.8233 10.6 49.51C10.6 49.1967 10.6033 48.8967 10.61 48.61C10.63 48.07 10.7433 47.5967 10.95 47.19C11.1567 46.7833 11.46 46.4667 11.86 46.24C12.2667 46.0133 12.7767 45.9 13.39 45.9C13.85 45.9 14.2533 45.9633 14.6 46.09C14.9467 46.2167 15.2333 46.3867 15.46 46.6C15.6933 46.8133 15.87 47.0533 15.99 47.32C16.11 47.58 16.1767 47.85 16.19 48.13C16.1967 48.19 16.1767 48.24 16.13 48.28C16.09 48.32 16.04 48.34 15.98 48.34H15.43C15.37 48.34 15.3167 48.3233 15.27 48.29C15.23 48.2567 15.2 48.1967 15.18 48.11C15.0667 47.59 14.8533 47.2333 14.54 47.04C14.2333 46.8467 13.8467 46.75 13.38 46.75C12.8467 46.75 12.4233 46.9033 12.11 47.21C11.7967 47.51 11.6267 47.9933 11.6 48.66C11.58 49.2067 11.58 49.7667 11.6 50.34C11.6267 51.0067 11.7967 51.4933 12.11 51.8C12.4233 52.1 12.8467 52.25 13.38 52.25C13.8467 52.25 14.2333 52.1533 14.54 51.96C14.8533 51.7667 15.0667 51.41 15.18 50.89C15.2 50.8033 15.23 50.7433 15.27 50.71C15.3167 50.6767 15.37 50.66 15.43 50.66H15.98C16.04 50.66 16.09 50.68 16.13 50.72C16.1767 50.76 16.1967 50.81 16.19 50.87C16.1767 51.15 16.11 51.4233 15.99 51.69C15.87 51.95 15.6933 52.1867 15.46 52.4C15.2333 52.6133 14.9467 52.7833 14.6 52.91C14.2533 53.0367 13.85 53.1 13.39 53.1ZM19.5302 53.1C19.0235 53.1 18.6002 53.0033 18.2602 52.81C17.9202 52.6167 17.6602 52.35 17.4802 52.01C17.3002 51.6633 17.2002 51.27 17.1802 50.83C17.1735 50.7167 17.1702 50.5733 17.1702 50.4C17.1702 50.22 17.1735 50.0767 17.1802 49.97C17.2002 49.5233 17.3002 49.13 17.4802 48.79C17.6668 48.45 17.9302 48.1833 18.2702 47.99C18.6102 47.7967 19.0302 47.7 19.5302 47.7C20.0302 47.7 20.4502 47.7967 20.7902 47.99C21.1302 48.1833 21.3902 48.45 21.5702 48.79C21.7568 49.13 21.8602 49.5233 21.8802 49.97C21.8868 50.0767 21.8902 50.22 21.8902 50.4C21.8902 50.5733 21.8868 50.7167 21.8802 50.83C21.8602 51.27 21.7602 51.6633 21.5802 52.01C21.4002 52.35 21.1402 52.6167 20.8002 52.81C20.4602 53.0033 20.0368 53.1 19.5302 53.1ZM19.5302 52.33C19.9435 52.33 20.2735 52.2 20.5202 51.94C20.7668 51.6733 20.9002 51.2867 20.9202 50.78C20.9268 50.68 20.9302 50.5533 20.9302 50.4C20.9302 50.2467 20.9268 50.12 20.9202 50.02C20.9002 49.5133 20.7668 49.13 20.5202 48.87C20.2735 48.6033 19.9435 48.47 19.5302 48.47C19.1168 48.47 18.7835 48.6033 18.5302 48.87C18.2835 49.13 18.1535 49.5133 18.1402 50.02C18.1335 50.12 18.1302 50.2467 18.1302 50.4C18.1302 50.5533 18.1335 50.68 18.1402 50.78C18.1535 51.2867 18.2835 51.6733 18.5302 51.94C18.7835 52.2 19.1168 52.33 19.5302 52.33ZM23.3723 53C23.3057 53 23.249 52.98 23.2023 52.94C23.1623 52.8933 23.1423 52.8367 23.1423 52.77V48.03C23.1423 47.9633 23.1623 47.91 23.2023 47.87C23.249 47.8233 23.3057 47.8 23.3723 47.8H23.8523C23.919 47.8 23.9723 47.8233 24.0123 47.87C24.0523 47.91 24.0723 47.9633 24.0723 48.03V52.77C24.0723 52.8367 24.0523 52.8933 24.0123 52.94C23.9723 52.98 23.919 53 23.8523 53H23.3723ZM23.2923 46.83C23.2257 46.83 23.169 46.81 23.1223 46.77C23.0823 46.7233 23.0623 46.6667 23.0623 46.6V46.06C23.0623 45.9933 23.0823 45.94 23.1223 45.9C23.169 45.8533 23.2257 45.83 23.2923 45.83H23.9223C23.989 45.83 24.0423 45.8533 24.0823 45.9C24.129 45.94 24.1523 45.9933 24.1523 46.06V46.6C24.1523 46.6667 24.129 46.7233 24.0823 46.77C24.0423 46.81 23.989 46.83 23.9223 46.83H23.2923ZM25.8919 53C25.8252 53 25.7685 52.98 25.7219 52.94C25.6819 52.8933 25.6619 52.8367 25.6619 52.77V48.03C25.6619 47.9633 25.6819 47.91 25.7219 47.87C25.7685 47.8233 25.8252 47.8 25.8919 47.8H26.3619C26.4285 47.8 26.4819 47.8233 26.5219 47.87C26.5685 47.91 26.5919 47.9633 26.5919 48.03V48.47C26.7652 48.2433 26.9819 48.06 27.2419 47.92C27.5085 47.7733 27.8485 47.7 28.2619 47.7C28.6952 47.7 29.0619 47.7967 29.3619 47.99C29.6685 48.1767 29.8985 48.44 30.0519 48.78C30.2052 49.1133 30.2819 49.5033 30.2819 49.95V52.77C30.2819 52.8367 30.2619 52.8933 30.2219 52.94C30.1819 52.98 30.1285 53 30.0619 53H29.5619C29.4952 53 29.4385 52.98 29.3919 52.94C29.3519 52.8933 29.3319 52.8367 29.3319 52.77V50C29.3319 49.5333 29.2185 49.17 28.9919 48.91C28.7652 48.6433 28.4319 48.51 27.9919 48.51C27.5785 48.51 27.2452 48.6433 26.9919 48.91C26.7452 49.17 26.6219 49.5333 26.6219 50V52.77C26.6219 52.8367 26.5985 52.8933 26.5519 52.94C26.5119 52.98 26.4585 53 26.3919 53H25.8919ZM32.0863 53C32.0197 53 31.963 52.98 31.9163 52.94C31.8763 52.8933 31.8563 52.8367 31.8563 52.77V46.24C31.8563 46.1667 31.8763 46.11 31.9163 46.07C31.963 46.0233 32.0197 46 32.0863 46H32.5863C32.6663 46 32.7263 46.02 32.7663 46.06C32.8063 46.1 32.8297 46.1333 32.8363 46.16L34.9563 50.2L37.0863 46.16C37.0997 46.1333 37.123 46.1 37.1563 46.06C37.1963 46.02 37.2563 46 37.3363 46H37.8263C37.8997 46 37.9563 46.0233 37.9963 46.07C38.043 46.11 38.0663 46.1667 38.0663 46.24V52.77C38.0663 52.8367 38.043 52.8933 37.9963 52.94C37.9563 52.98 37.8997 53 37.8263 53H37.3363C37.2697 53 37.213 52.98 37.1663 52.94C37.1263 52.8933 37.1063 52.8367 37.1063 52.77V47.85L35.4363 51.11C35.4097 51.1767 35.3697 51.23 35.3163 51.27C35.263 51.3033 35.1963 51.32 35.1163 51.32H34.8063C34.7197 51.32 34.6497 51.3033 34.5963 51.27C34.5497 51.23 34.5097 51.1767 34.4763 51.11L32.8063 47.85V52.77C32.8063 52.8367 32.783 52.8933 32.7363 52.94C32.6963 52.98 32.643 53 32.5763 53H32.0863ZM41.1158 53.1C40.7824 53.1 40.4791 53.0333 40.2058 52.9C39.9324 52.7667 39.7124 52.5867 39.5458 52.36C39.3791 52.1333 39.2958 51.8767 39.2958 51.59C39.2958 51.13 39.4824 50.7633 39.8558 50.49C40.2291 50.2167 40.7158 50.0367 41.3158 49.95L42.8058 49.74V49.45C42.8058 49.13 42.7124 48.88 42.5258 48.7C42.3458 48.52 42.0491 48.43 41.6358 48.43C41.3358 48.43 41.0924 48.49 40.9058 48.61C40.7258 48.73 40.5991 48.8833 40.5258 49.07C40.4858 49.17 40.4158 49.22 40.3158 49.22H39.8658C39.7924 49.22 39.7358 49.2 39.6958 49.16C39.6624 49.1133 39.6458 49.06 39.6458 49C39.6458 48.9 39.6824 48.7767 39.7558 48.63C39.8358 48.4833 39.9558 48.34 40.1158 48.2C40.2758 48.06 40.4791 47.9433 40.7258 47.85C40.9791 47.75 41.2858 47.7 41.6458 47.7C42.0458 47.7 42.3824 47.7533 42.6558 47.86C42.9291 47.96 43.1424 48.0967 43.2958 48.27C43.4558 48.4433 43.5691 48.64 43.6358 48.86C43.7091 49.08 43.7458 49.3033 43.7458 49.53V52.77C43.7458 52.8367 43.7224 52.8933 43.6758 52.94C43.6358 52.98 43.5824 53 43.5158 53H43.0558C42.9824 53 42.9258 52.98 42.8858 52.94C42.8458 52.8933 42.8258 52.8367 42.8258 52.77V52.34C42.7391 52.46 42.6224 52.58 42.4758 52.7C42.3291 52.8133 42.1458 52.91 41.9258 52.99C41.7058 53.0633 41.4358 53.1 41.1158 53.1ZM41.3258 52.35C41.5991 52.35 41.8491 52.2933 42.0758 52.18C42.3024 52.06 42.4791 51.8767 42.6058 51.63C42.7391 51.3833 42.8058 51.0733 42.8058 50.7V50.42L41.6458 50.59C41.1724 50.6567 40.8158 50.77 40.5758 50.93C40.3358 51.0833 40.2158 51.28 40.2158 51.52C40.2158 51.7067 40.2691 51.8633 40.3758 51.99C40.4891 52.11 40.6291 52.2 40.7958 52.26C40.9691 52.32 41.1458 52.35 41.3258 52.35ZM45.4134 53C45.3467 53 45.29 52.98 45.2434 52.94C45.2034 52.8933 45.1834 52.8367 45.1834 52.77V48.04C45.1834 47.9733 45.2034 47.9167 45.2434 47.87C45.29 47.8233 45.3467 47.8 45.4134 47.8H45.8734C45.94 47.8 45.9967 47.8233 46.0434 47.87C46.09 47.9167 46.1134 47.9733 46.1134 48.04V48.48C46.2467 48.2533 46.43 48.0833 46.6634 47.97C46.8967 47.8567 47.1767 47.8 47.5034 47.8H47.9034C47.97 47.8 48.0234 47.8233 48.0634 47.87C48.1034 47.91 48.1234 47.9633 48.1234 48.03V48.44C48.1234 48.5067 48.1034 48.56 48.0634 48.6C48.0234 48.64 47.97 48.66 47.9034 48.66H47.3034C46.9434 48.66 46.66 48.7667 46.4534 48.98C46.2467 49.1867 46.1434 49.47 46.1434 49.83V52.77C46.1434 52.8367 46.12 52.8933 46.0734 52.94C46.0267 52.98 45.97 53 45.9034 53H45.4134ZM49.2222 53C49.1555 53 49.0989 52.98 49.0522 52.94C49.0122 52.8933 48.9922 52.8367 48.9922 52.77V46.13C48.9922 46.0633 49.0122 46.01 49.0522 45.97C49.0989 45.9233 49.1555 45.9 49.2222 45.9H49.6922C49.7589 45.9 49.8122 45.9233 49.8522 45.97C49.8989 46.01 49.9222 46.0633 49.9222 46.13V49.61L51.8922 47.97C51.9722 47.9033 52.0322 47.86 52.0722 47.84C52.1189 47.8133 52.1922 47.8 52.2922 47.8H52.8222C52.8822 47.8 52.9322 47.82 52.9722 47.86C53.0122 47.9 53.0322 47.95 53.0322 48.01C53.0322 48.0367 53.0222 48.0667 53.0022 48.1C52.9889 48.1333 52.9589 48.1667 52.9122 48.2L50.6022 50.12L53.1622 52.61C53.2422 52.6767 53.2822 52.7367 53.2822 52.79C53.2822 52.85 53.2622 52.9 53.2222 52.94C53.1822 52.98 53.1322 53 53.0722 53H52.5522C52.4522 53 52.3789 52.99 52.3322 52.97C52.2855 52.9433 52.2255 52.8967 52.1522 52.83L49.9222 50.7V52.77C49.9222 52.8367 49.8989 52.8933 49.8522 52.94C49.8122 52.98 49.7589 53 49.6922 53H49.2222ZM55.9643 53.1C55.2776 53.1 54.731 52.89 54.3243 52.47C53.9176 52.0433 53.6943 51.4633 53.6543 50.73C53.6476 50.6433 53.6443 50.5333 53.6443 50.4C53.6443 50.26 53.6476 50.1467 53.6543 50.06C53.681 49.5867 53.791 49.1733 53.9843 48.82C54.1776 48.46 54.441 48.1833 54.7743 47.99C55.1143 47.7967 55.511 47.7 55.9643 47.7C56.471 47.7 56.8943 47.8067 57.2343 48.02C57.581 48.2333 57.8443 48.5367 58.0243 48.93C58.2043 49.3233 58.2943 49.7833 58.2943 50.31V50.48C58.2943 50.5533 58.271 50.61 58.2243 50.65C58.1843 50.69 58.131 50.71 58.0643 50.71H54.6043C54.6043 50.7167 54.6043 50.73 54.6043 50.75C54.6043 50.77 54.6043 50.7867 54.6043 50.8C54.6176 51.0733 54.6776 51.33 54.7843 51.57C54.891 51.8033 55.0443 51.9933 55.2443 52.14C55.4443 52.2867 55.6843 52.36 55.9643 52.36C56.2043 52.36 56.4043 52.3233 56.5643 52.25C56.7243 52.1767 56.8543 52.0967 56.9543 52.01C57.0543 51.9167 57.121 51.8467 57.1543 51.8C57.2143 51.7133 57.261 51.6633 57.2943 51.65C57.3276 51.63 57.381 51.62 57.4543 51.62H57.9343C58.001 51.62 58.0543 51.64 58.0943 51.68C58.141 51.7133 58.161 51.7633 58.1543 51.83C58.1476 51.93 58.0943 52.0533 57.9943 52.2C57.8943 52.34 57.751 52.48 57.5643 52.62C57.3776 52.76 57.151 52.8767 56.8843 52.97C56.6176 53.0567 56.311 53.1 55.9643 53.1ZM54.6043 50.02H57.3443V49.99C57.3443 49.69 57.2876 49.4233 57.1743 49.19C57.0676 48.9567 56.911 48.7733 56.7043 48.64C56.4976 48.5 56.251 48.43 55.9643 48.43C55.6776 48.43 55.431 48.5 55.2243 48.64C55.0243 48.7733 54.871 48.9567 54.7643 49.19C54.6576 49.4233 54.6043 49.69 54.6043 49.99V50.02ZM61.4907 53C61.1174 53 60.814 52.93 60.5807 52.79C60.3474 52.6433 60.1774 52.44 60.0707 52.18C59.964 51.9133 59.9107 51.6 59.9107 51.24V48.6H59.1307C59.064 48.6 59.0074 48.58 58.9607 48.54C58.9207 48.4933 58.9007 48.4367 58.9007 48.37V48.03C58.9007 47.9633 58.9207 47.91 58.9607 47.87C59.0074 47.8233 59.064 47.8 59.1307 47.8H59.9107V46.13C59.9107 46.0633 59.9307 46.01 59.9707 45.97C60.0174 45.9233 60.074 45.9 60.1407 45.9H60.6107C60.6774 45.9 60.7307 45.9233 60.7707 45.97C60.8174 46.01 60.8407 46.0633 60.8407 46.13V47.8H62.0807C62.1474 47.8 62.2007 47.8233 62.2407 47.87C62.2874 47.91 62.3107 47.9633 62.3107 48.03V48.37C62.3107 48.4367 62.2874 48.4933 62.2407 48.54C62.2007 48.58 62.1474 48.6 62.0807 48.6H60.8407V51.17C60.8407 51.4833 60.894 51.73 61.0007 51.91C61.1074 52.09 61.2974 52.18 61.5707 52.18H62.1807C62.2474 52.18 62.3007 52.2033 62.3407 52.25C62.3874 52.29 62.4107 52.3433 62.4107 52.41V52.77C62.4107 52.8367 62.3874 52.8933 62.3407 52.94C62.3007 52.98 62.2474 53 62.1807 53H61.4907ZM66.017 53.1C65.4036 53.1 64.8936 52.9867 64.487 52.76C64.087 52.5333 63.7836 52.2167 63.577 51.81C63.3703 51.4033 63.257 50.93 63.237 50.39C63.2303 50.1167 63.227 49.8233 63.227 49.51C63.227 49.1967 63.2303 48.8967 63.237 48.61C63.257 48.07 63.3703 47.5967 63.577 47.19C63.7836 46.7833 64.087 46.4667 64.487 46.24C64.8936 46.0133 65.4036 45.9 66.017 45.9C66.477 45.9 66.8803 45.9633 67.227 46.09C67.5736 46.2167 67.8603 46.3867 68.087 46.6C68.3203 46.8133 68.497 47.0533 68.617 47.32C68.737 47.58 68.8036 47.85 68.817 48.13C68.8236 48.19 68.8036 48.24 68.757 48.28C68.717 48.32 68.667 48.34 68.607 48.34H68.057C67.997 48.34 67.9436 48.3233 67.897 48.29C67.857 48.2567 67.827 48.1967 67.807 48.11C67.6936 47.59 67.4803 47.2333 67.167 47.04C66.8603 46.8467 66.4736 46.75 66.007 46.75C65.4736 46.75 65.0503 46.9033 64.737 47.21C64.4236 47.51 64.2536 47.9933 64.227 48.66C64.207 49.2067 64.207 49.7667 64.227 50.34C64.2536 51.0067 64.4236 51.4933 64.737 51.8C65.0503 52.1 65.4736 52.25 66.007 52.25C66.4736 52.25 66.8603 52.1533 67.167 51.96C67.4803 51.7667 67.6936 51.41 67.807 50.89C67.827 50.8033 67.857 50.7433 67.897 50.71C67.9436 50.6767 67.997 50.66 68.057 50.66H68.607C68.667 50.66 68.717 50.68 68.757 50.72C68.8036 50.76 68.8236 50.81 68.817 50.87C68.8036 51.15 68.737 51.4233 68.617 51.69C68.497 51.95 68.3203 52.1867 68.087 52.4C67.8603 52.6133 67.5736 52.7833 67.227 52.91C66.8803 53.0367 66.477 53.1 66.017 53.1ZM71.4771 53.1C71.1438 53.1 70.8404 53.0333 70.5671 52.9C70.2938 52.7667 70.0738 52.5867 69.9071 52.36C69.7404 52.1333 69.6571 51.8767 69.6571 51.59C69.6571 51.13 69.8438 50.7633 70.2171 50.49C70.5904 50.2167 71.0771 50.0367 71.6771 49.95L73.1671 49.74V49.45C73.1671 49.13 73.0738 48.88 72.8871 48.7C72.7071 48.52 72.4104 48.43 71.9971 48.43C71.6971 48.43 71.4538 48.49 71.2671 48.61C71.0871 48.73 70.9604 48.8833 70.8871 49.07C70.8471 49.17 70.7771 49.22 70.6771 49.22H70.2271C70.1538 49.22 70.0971 49.2 70.0571 49.16C70.0238 49.1133 70.0071 49.06 70.0071 49C70.0071 48.9 70.0438 48.7767 70.1171 48.63C70.1971 48.4833 70.3171 48.34 70.4771 48.2C70.6371 48.06 70.8404 47.9433 71.0871 47.85C71.3404 47.75 71.6471 47.7 72.0071 47.7C72.4071 47.7 72.7438 47.7533 73.0171 47.86C73.2904 47.96 73.5038 48.0967 73.6571 48.27C73.8171 48.4433 73.9304 48.64 73.9971 48.86C74.0704 49.08 74.1071 49.3033 74.1071 49.53V52.77C74.1071 52.8367 74.0838 52.8933 74.0371 52.94C73.9971 52.98 73.9438 53 73.8771 53H73.4171C73.3438 53 73.2871 52.98 73.2471 52.94C73.2071 52.8933 73.1871 52.8367 73.1871 52.77V52.34C73.1004 52.46 72.9838 52.58 72.8371 52.7C72.6904 52.8133 72.5071 52.91 72.2871 52.99C72.0671 53.0633 71.7971 53.1 71.4771 53.1ZM71.6871 52.35C71.9604 52.35 72.2104 52.2933 72.4371 52.18C72.6638 52.06 72.8404 51.8767 72.9671 51.63C73.1004 51.3833 73.1671 51.0733 73.1671 50.7V50.42L72.0071 50.59C71.5338 50.6567 71.1771 50.77 70.9371 50.93C70.6971 51.0833 70.5771 51.28 70.5771 51.52C70.5771 51.7067 70.6304 51.8633 70.7371 51.99C70.8504 52.11 70.9904 52.2 71.1571 52.26C71.3304 52.32 71.5071 52.35 71.6871 52.35ZM75.7847 54.9C75.718 54.9 75.6614 54.8767 75.6147 54.83C75.5747 54.79 75.5547 54.7367 75.5547 54.67V48.03C75.5547 47.9633 75.5747 47.91 75.6147 47.87C75.6614 47.8233 75.718 47.8 75.7847 47.8H76.2447C76.3114 47.8 76.3647 47.8233 76.4047 47.87C76.4514 47.91 76.4747 47.9633 76.4747 48.03V48.47C76.6347 48.25 76.848 48.0667 77.1147 47.92C77.3814 47.7733 77.7147 47.7 78.1147 47.7C78.488 47.7 78.8047 47.7633 79.0647 47.89C79.3314 48.0167 79.548 48.19 79.7147 48.41C79.888 48.63 80.018 48.88 80.1047 49.16C80.1914 49.44 80.238 49.74 80.2447 50.06C80.2514 50.1667 80.2547 50.28 80.2547 50.4C80.2547 50.52 80.2514 50.6333 80.2447 50.74C80.238 51.0533 80.1914 51.3533 80.1047 51.64C80.018 51.92 79.888 52.17 79.7147 52.39C79.548 52.6033 79.3314 52.7767 79.0647 52.91C78.8047 53.0367 78.488 53.1 78.1147 53.1C77.728 53.1 77.4014 53.03 77.1347 52.89C76.8747 52.7433 76.6614 52.5633 76.4947 52.35V54.67C76.4947 54.7367 76.4747 54.79 76.4347 54.83C76.3947 54.8767 76.338 54.9 76.2647 54.9H75.7847ZM77.9047 52.29C78.2514 52.29 78.5214 52.2167 78.7147 52.07C78.9147 51.9167 79.058 51.72 79.1447 51.48C79.2314 51.2333 79.2814 50.97 79.2947 50.69C79.3014 50.4967 79.3014 50.3033 79.2947 50.11C79.2814 49.83 79.2314 49.57 79.1447 49.33C79.058 49.0833 78.9147 48.8867 78.7147 48.74C78.5214 48.5867 78.2514 48.51 77.9047 48.51C77.578 48.51 77.3114 48.5867 77.1047 48.74C76.9047 48.8933 76.7547 49.09 76.6547 49.33C76.5614 49.5633 76.508 49.8033 76.4947 50.05C76.488 50.1567 76.4847 50.2833 76.4847 50.43C76.4847 50.5767 76.488 50.7067 76.4947 50.82C76.5014 51.0533 76.5547 51.2833 76.6547 51.51C76.7614 51.7367 76.918 51.9233 77.1247 52.07C77.3314 52.2167 77.5914 52.29 77.9047 52.29Z" fill="#8C867B"/>
<defs>
<linearGradient id="paint0_linear_10_763" x1="64.5" y1="37.5" x2="42.7193" y2="20.5316" gradientUnits="userSpaceOnUse">
<stop stop-color="#ECAF5A"/>
<stop offset="1" stop-color="#89683D"/>
</linearGradient>
<linearGradient id="paint1_linear_10_763" x1="64.5" y1="37.5" x2="42.7193" y2="20.5316" gradientUnits="userSpaceOnUse">
<stop stop-color="#ECAF5A"/>
<stop offset="1" stop-color="#89683D"/>
</linearGradient>
<radialGradient id="paint2_radial_10_763" cx="0" cy="0" r="1" gradientUnits="userSpaceOnUse" gradientTransform="translate(-52.8766 65.8503) scale(317.972 85.6159)">
<stop stop-color="#835D2D"/>
<stop offset="0.24" stop-color="#8A6331"/>
<stop offset="1" stop-color="#F8E07F"/>
</radialGradient>
</defs>
</svg>
