<svg width="40" height="60" viewBox="0 0 40 60" fill="none" xmlns="http://www.w3.org/2000/svg">
<path d="M34.0224 20C34.0224 27.7443 27.7443 34.0224 20 34.0224M34.0224 20C34.0224 12.2556 27.7443 5.97754 20 5.97754M34.0224 20H5.97754M20 34.0224C12.2556 34.0224 5.97754 27.7443 5.97754 20M20 34.0224C23.5074 30.1826 25.5006 25.1994 25.6089 20C25.5006 14.8005 23.5074 9.81738 20 5.97754M20 34.0224C16.4926 30.1826 14.4993 25.1994 14.391 20C14.4993 14.8005 16.4926 9.81738 20 5.97754M5.97754 20C5.97754 12.2556 12.2556 5.97754 20 5.97754" stroke="url(#paint0_linear_10_768)" stroke-width="2.5" stroke-linecap="round" stroke-linejoin="round"/>
<path d="M34.0224 20C34.0224 27.7443 27.7443 34.0224 20 34.0224M34.0224 20C34.0224 12.2556 27.7443 5.97754 20 5.97754M34.0224 20H5.97754M20 34.0224C12.2556 34.0224 5.97754 27.7443 5.97754 20M20 34.0224C23.5074 30.1826 25.5006 25.1994 25.6089 20C25.5006 14.8005 23.5074 9.81738 20 5.97754M20 34.0224C16.4926 30.1826 14.4993 25.1994 14.391 20C14.4993 14.8005 16.4926 9.81738 20 5.97754M5.97754 20C5.97754 12.2556 12.2556 5.97754 20 5.97754" stroke="#D1D2D7" stroke-opacity="0.3" stroke-width="2.5" stroke-linecap="round" stroke-linejoin="round"/>
<path d="M20 37.5C29.665 37.5 37.5 29.665 37.5 20C37.5 10.335 29.665 2.5 20 2.5C10.335 2.5 2.5 10.335 2.5 20C2.5 29.665 10.335 37.5 20 37.5Z" stroke="url(#paint1_linear_10_768)" stroke-width="1.5" stroke-linecap="round" stroke-linejoin="round"/>
<path d="M20 37.5C29.665 37.5 37.5 29.665 37.5 20C37.5 10.335 29.665 2.5 20 2.5C10.335 2.5 2.5 10.335 2.5 20C2.5 29.665 10.335 37.5 20 37.5Z" stroke="#D1D2D7" stroke-opacity="0.2" stroke-width="1.5" stroke-linecap="round" stroke-linejoin="round"/>
<path d="M6.62 53.1C6.04 53.1 5.55333 53.0133 5.16 52.84C4.76667 52.66 4.46333 52.43 4.25 52.15C4.04333 51.8633 3.93333 51.56 3.92 51.24C3.92 51.1867 3.94 51.14 3.98 51.1C4.02667 51.0533 4.08 51.03 4.14 51.03H4.65C4.73 51.03 4.79 51.05 4.83 51.09C4.87 51.13 4.89667 51.1767 4.91 51.23C4.94333 51.39 5.02333 51.55 5.15 51.71C5.28333 51.8633 5.46667 51.9933 5.7 52.1C5.94 52.2 6.24667 52.25 6.62 52.25C7.19333 52.25 7.61333 52.15 7.88 51.95C8.15333 51.7433 8.29 51.47 8.29 51.13C8.29 50.8967 8.21667 50.71 8.07 50.57C7.93 50.4233 7.71333 50.2933 7.42 50.18C7.12667 50.0667 6.74667 49.9433 6.28 49.81C5.79333 49.67 5.39 49.5167 5.07 49.35C4.75 49.1833 4.51 48.9767 4.35 48.73C4.19667 48.4833 4.12 48.17 4.12 47.79C4.12 47.43 4.21667 47.11 4.41 46.83C4.60333 46.5433 4.88 46.3167 5.24 46.15C5.60667 45.9833 6.05 45.9 6.57 45.9C6.98333 45.9 7.34333 45.9567 7.65 46.07C7.96333 46.1767 8.22333 46.3233 8.43 46.51C8.63667 46.69 8.79333 46.8867 8.9 47.1C9.00667 47.3067 9.06333 47.51 9.07 47.71C9.07 47.7567 9.05333 47.8033 9.02 47.85C8.98667 47.89 8.93333 47.91 8.86 47.91H8.33C8.28333 47.91 8.23333 47.8967 8.18 47.87C8.13333 47.8433 8.09667 47.7933 8.07 47.72C8.03 47.4467 7.87667 47.2167 7.61 47.03C7.34333 46.8433 6.99667 46.75 6.57 46.75C6.13667 46.75 5.78333 46.8333 5.51 47C5.24333 47.1667 5.11 47.4267 5.11 47.78C5.11 48.0067 5.17333 48.1967 5.3 48.35C5.42667 48.4967 5.62667 48.6267 5.9 48.74C6.17333 48.8533 6.53 48.9733 6.97 49.1C7.50333 49.2467 7.94 49.4033 8.28 49.57C8.62 49.73 8.87 49.9333 9.03 50.18C9.19667 50.42 9.28 50.73 9.28 51.11C9.28 51.53 9.17 51.89 8.95 52.19C8.73 52.4833 8.42 52.71 8.02 52.87C7.62667 53.0233 7.16 53.1 6.62 53.1ZM12.5907 53.1C12.084 53.1 11.6607 53.0033 11.3207 52.81C10.9807 52.6167 10.7207 52.35 10.5407 52.01C10.3607 51.6633 10.2607 51.27 10.2407 50.83C10.234 50.7167 10.2307 50.5733 10.2307 50.4C10.2307 50.22 10.234 50.0767 10.2407 49.97C10.2607 49.5233 10.3607 49.13 10.5407 48.79C10.7274 48.45 10.9907 48.1833 11.3307 47.99C11.6707 47.7967 12.0907 47.7 12.5907 47.7C13.0907 47.7 13.5107 47.7967 13.8507 47.99C14.1907 48.1833 14.4507 48.45 14.6307 48.79C14.8174 49.13 14.9207 49.5233 14.9407 49.97C14.9474 50.0767 14.9507 50.22 14.9507 50.4C14.9507 50.5733 14.9474 50.7167 14.9407 50.83C14.9207 51.27 14.8207 51.6633 14.6407 52.01C14.4607 52.35 14.2007 52.6167 13.8607 52.81C13.5207 53.0033 13.0974 53.1 12.5907 53.1ZM12.5907 52.33C13.004 52.33 13.334 52.2 13.5807 51.94C13.8274 51.6733 13.9607 51.2867 13.9807 50.78C13.9874 50.68 13.9907 50.5533 13.9907 50.4C13.9907 50.2467 13.9874 50.12 13.9807 50.02C13.9607 49.5133 13.8274 49.13 13.5807 48.87C13.334 48.6033 13.004 48.47 12.5907 48.47C12.1774 48.47 11.844 48.6033 11.5907 48.87C11.344 49.13 11.214 49.5133 11.2007 50.02C11.194 50.12 11.1907 50.2467 11.1907 50.4C11.1907 50.5533 11.194 50.68 11.2007 50.78C11.214 51.2867 11.344 51.6733 11.5907 51.94C11.844 52.2 12.1774 52.33 12.5907 52.33ZM18.3029 53.1C17.8296 53.1 17.4196 53.01 17.0729 52.83C16.7329 52.6433 16.4696 52.38 16.2829 52.04C16.0962 51.6933 15.9962 51.28 15.9829 50.8C15.9762 50.7 15.9729 50.5667 15.9729 50.4C15.9729 50.2333 15.9762 50.1 15.9829 50C15.9962 49.52 16.0962 49.11 16.2829 48.77C16.4696 48.4233 16.7329 48.16 17.0729 47.98C17.4196 47.7933 17.8296 47.7 18.3029 47.7C18.6896 47.7 19.0196 47.7533 19.2929 47.86C19.5729 47.9667 19.8029 48.1033 19.9829 48.27C20.1629 48.4367 20.2962 48.6167 20.3829 48.81C20.4762 49.0033 20.5262 49.1867 20.5329 49.36C20.5396 49.4267 20.5196 49.48 20.4729 49.52C20.4262 49.56 20.3696 49.58 20.3029 49.58H19.8229C19.7562 49.58 19.7062 49.5667 19.6729 49.54C19.6396 49.5067 19.6062 49.4533 19.5729 49.38C19.4529 49.0533 19.2896 48.8233 19.0829 48.69C18.8762 48.5567 18.6196 48.49 18.3129 48.49C17.9129 48.49 17.5862 48.6133 17.3329 48.86C17.0862 49.1067 16.9529 49.5033 16.9329 50.05C16.9262 50.29 16.9262 50.5233 16.9329 50.75C16.9529 51.3033 17.0862 51.7033 17.3329 51.95C17.5862 52.19 17.9129 52.31 18.3129 52.31C18.6196 52.31 18.8762 52.2433 19.0829 52.11C19.2896 51.9767 19.4529 51.7467 19.5729 51.42C19.6062 51.3467 19.6396 51.2967 19.6729 51.27C19.7062 51.2367 19.7562 51.22 19.8229 51.22H20.3029C20.3696 51.22 20.4262 51.24 20.4729 51.28C20.5196 51.32 20.5396 51.3733 20.5329 51.44C20.5262 51.58 20.4962 51.7233 20.4429 51.87C20.3896 52.0167 20.3029 52.1667 20.1829 52.32C20.0696 52.4667 19.9262 52.6 19.7529 52.72C19.5796 52.8333 19.3696 52.9267 19.1229 53C18.8829 53.0667 18.6096 53.1 18.3029 53.1ZM21.9505 53C21.8838 53 21.8271 52.98 21.7805 52.94C21.7405 52.8933 21.7205 52.8367 21.7205 52.77V48.03C21.7205 47.9633 21.7405 47.91 21.7805 47.87C21.8271 47.8233 21.8838 47.8 21.9505 47.8H22.4305C22.4971 47.8 22.5505 47.8233 22.5905 47.87C22.6305 47.91 22.6505 47.9633 22.6505 48.03V52.77C22.6505 52.8367 22.6305 52.8933 22.5905 52.94C22.5505 52.98 22.4971 53 22.4305 53H21.9505ZM21.8705 46.83C21.8038 46.83 21.7471 46.81 21.7005 46.77C21.6605 46.7233 21.6405 46.6667 21.6405 46.6V46.06C21.6405 45.9933 21.6605 45.94 21.7005 45.9C21.7471 45.8533 21.8038 45.83 21.8705 45.83H22.5005C22.5671 45.83 22.6205 45.8533 22.6605 45.9C22.7071 45.94 22.7305 45.9933 22.7305 46.06V46.6C22.7305 46.6667 22.7071 46.7233 22.6605 46.77C22.6205 46.81 22.5671 46.83 22.5005 46.83H21.8705ZM25.5923 53.1C25.259 53.1 24.9557 53.0333 24.6823 52.9C24.409 52.7667 24.189 52.5867 24.0223 52.36C23.8557 52.1333 23.7723 51.8767 23.7723 51.59C23.7723 51.13 23.959 50.7633 24.3323 50.49C24.7057 50.2167 25.1923 50.0367 25.7923 49.95L27.2823 49.74V49.45C27.2823 49.13 27.189 48.88 27.0023 48.7C26.8223 48.52 26.5257 48.43 26.1123 48.43C25.8123 48.43 25.569 48.49 25.3823 48.61C25.2023 48.73 25.0757 48.8833 25.0023 49.07C24.9623 49.17 24.8923 49.22 24.7923 49.22H24.3423C24.269 49.22 24.2123 49.2 24.1723 49.16C24.139 49.1133 24.1223 49.06 24.1223 49C24.1223 48.9 24.159 48.7767 24.2323 48.63C24.3123 48.4833 24.4323 48.34 24.5923 48.2C24.7523 48.06 24.9557 47.9433 25.2023 47.85C25.4557 47.75 25.7623 47.7 26.1223 47.7C26.5223 47.7 26.859 47.7533 27.1323 47.86C27.4057 47.96 27.619 48.0967 27.7723 48.27C27.9323 48.4433 28.0457 48.64 28.1123 48.86C28.1857 49.08 28.2223 49.3033 28.2223 49.53V52.77C28.2223 52.8367 28.199 52.8933 28.1523 52.94C28.1123 52.98 28.059 53 27.9923 53H27.5323C27.459 53 27.4023 52.98 27.3623 52.94C27.3223 52.8933 27.3023 52.8367 27.3023 52.77V52.34C27.2157 52.46 27.099 52.58 26.9523 52.7C26.8057 52.8133 26.6223 52.91 26.4023 52.99C26.1823 53.0633 25.9123 53.1 25.5923 53.1ZM25.8023 52.35C26.0757 52.35 26.3257 52.2933 26.5523 52.18C26.779 52.06 26.9557 51.8767 27.0823 51.63C27.2157 51.3833 27.2823 51.0733 27.2823 50.7V50.42L26.1223 50.59C25.649 50.6567 25.2923 50.77 25.0523 50.93C24.8123 51.0833 24.6923 51.28 24.6923 51.52C24.6923 51.7067 24.7457 51.8633 24.8523 51.99C24.9657 52.11 25.1057 52.2 25.2723 52.26C25.4457 52.32 25.6223 52.35 25.8023 52.35ZM29.8999 53C29.8333 53 29.7766 52.98 29.7299 52.94C29.6899 52.8933 29.6699 52.8367 29.6699 52.77V46.13C29.6699 46.0633 29.6899 46.01 29.7299 45.97C29.7766 45.9233 29.8333 45.9 29.8999 45.9H30.3699C30.4433 45.9 30.4999 45.9233 30.5399 45.97C30.5799 46.01 30.5999 46.0633 30.5999 46.13V52.77C30.5999 52.8367 30.5799 52.8933 30.5399 52.94C30.4999 52.98 30.4433 53 30.3699 53H29.8999ZM33.8916 53.1C33.5182 53.1 33.1982 53.0533 32.9316 52.96C32.6649 52.8667 32.4482 52.7533 32.2816 52.62C32.1149 52.4867 31.9882 52.3533 31.9016 52.22C31.8216 52.0867 31.7782 51.98 31.7716 51.9C31.7649 51.8267 31.7882 51.77 31.8416 51.73C31.8949 51.69 31.9482 51.67 32.0016 51.67H32.4416C32.4816 51.67 32.5116 51.6767 32.5316 51.69C32.5582 51.6967 32.5916 51.7233 32.6316 51.77C32.7182 51.8633 32.8149 51.9567 32.9216 52.05C33.0282 52.1433 33.1582 52.22 33.3116 52.28C33.4716 52.34 33.6682 52.37 33.9016 52.37C34.2416 52.37 34.5216 52.3067 34.7416 52.18C34.9616 52.0467 35.0716 51.8533 35.0716 51.6C35.0716 51.4333 35.0249 51.3 34.9316 51.2C34.8449 51.1 34.6849 51.01 34.4516 50.93C34.2249 50.85 33.9116 50.7667 33.5116 50.68C33.1116 50.5867 32.7949 50.4733 32.5616 50.34C32.3282 50.2 32.1616 50.0367 32.0616 49.85C31.9616 49.6567 31.9116 49.44 31.9116 49.2C31.9116 48.9533 31.9849 48.7167 32.1316 48.49C32.2782 48.2567 32.4916 48.0667 32.7716 47.92C33.0582 47.7733 33.4149 47.7 33.8416 47.7C34.1882 47.7 34.4849 47.7433 34.7316 47.83C34.9782 47.9167 35.1816 48.0267 35.3416 48.16C35.5016 48.2867 35.6216 48.4133 35.7016 48.54C35.7816 48.6667 35.8249 48.7733 35.8316 48.86C35.8382 48.9267 35.8182 48.9833 35.7716 49.03C35.7249 49.07 35.6716 49.09 35.6116 49.09H35.1916C35.1449 49.09 35.1049 49.08 35.0716 49.06C35.0449 49.04 35.0182 49.0167 34.9916 48.99C34.9249 48.9033 34.8449 48.8167 34.7516 48.73C34.6649 48.6433 34.5482 48.5733 34.4016 48.52C34.2616 48.46 34.0749 48.43 33.8416 48.43C33.5082 48.43 33.2582 48.5 33.0916 48.64C32.9249 48.78 32.8416 48.9567 32.8416 49.17C32.8416 49.2967 32.8782 49.41 32.9516 49.51C33.0249 49.61 33.1649 49.7 33.3716 49.78C33.5782 49.86 33.8849 49.9467 34.2916 50.04C34.7316 50.1267 35.0782 50.2433 35.3316 50.39C35.5849 50.5367 35.7649 50.7067 35.8716 50.9C35.9782 51.0933 36.0316 51.3167 36.0316 51.57C36.0316 51.85 35.9482 52.1067 35.7816 52.34C35.6216 52.5733 35.3816 52.76 35.0616 52.9C34.7482 53.0333 34.3582 53.1 33.8916 53.1Z" fill="url(#paint2_radial_10_768)"/>
<path d="M6.62 53.1C6.04 53.1 5.55333 53.0133 5.16 52.84C4.76667 52.66 4.46333 52.43 4.25 52.15C4.04333 51.8633 3.93333 51.56 3.92 51.24C3.92 51.1867 3.94 51.14 3.98 51.1C4.02667 51.0533 4.08 51.03 4.14 51.03H4.65C4.73 51.03 4.79 51.05 4.83 51.09C4.87 51.13 4.89667 51.1767 4.91 51.23C4.94333 51.39 5.02333 51.55 5.15 51.71C5.28333 51.8633 5.46667 51.9933 5.7 52.1C5.94 52.2 6.24667 52.25 6.62 52.25C7.19333 52.25 7.61333 52.15 7.88 51.95C8.15333 51.7433 8.29 51.47 8.29 51.13C8.29 50.8967 8.21667 50.71 8.07 50.57C7.93 50.4233 7.71333 50.2933 7.42 50.18C7.12667 50.0667 6.74667 49.9433 6.28 49.81C5.79333 49.67 5.39 49.5167 5.07 49.35C4.75 49.1833 4.51 48.9767 4.35 48.73C4.19667 48.4833 4.12 48.17 4.12 47.79C4.12 47.43 4.21667 47.11 4.41 46.83C4.60333 46.5433 4.88 46.3167 5.24 46.15C5.60667 45.9833 6.05 45.9 6.57 45.9C6.98333 45.9 7.34333 45.9567 7.65 46.07C7.96333 46.1767 8.22333 46.3233 8.43 46.51C8.63667 46.69 8.79333 46.8867 8.9 47.1C9.00667 47.3067 9.06333 47.51 9.07 47.71C9.07 47.7567 9.05333 47.8033 9.02 47.85C8.98667 47.89 8.93333 47.91 8.86 47.91H8.33C8.28333 47.91 8.23333 47.8967 8.18 47.87C8.13333 47.8433 8.09667 47.7933 8.07 47.72C8.03 47.4467 7.87667 47.2167 7.61 47.03C7.34333 46.8433 6.99667 46.75 6.57 46.75C6.13667 46.75 5.78333 46.8333 5.51 47C5.24333 47.1667 5.11 47.4267 5.11 47.78C5.11 48.0067 5.17333 48.1967 5.3 48.35C5.42667 48.4967 5.62667 48.6267 5.9 48.74C6.17333 48.8533 6.53 48.9733 6.97 49.1C7.50333 49.2467 7.94 49.4033 8.28 49.57C8.62 49.73 8.87 49.9333 9.03 50.18C9.19667 50.42 9.28 50.73 9.28 51.11C9.28 51.53 9.17 51.89 8.95 52.19C8.73 52.4833 8.42 52.71 8.02 52.87C7.62667 53.0233 7.16 53.1 6.62 53.1ZM12.5907 53.1C12.084 53.1 11.6607 53.0033 11.3207 52.81C10.9807 52.6167 10.7207 52.35 10.5407 52.01C10.3607 51.6633 10.2607 51.27 10.2407 50.83C10.234 50.7167 10.2307 50.5733 10.2307 50.4C10.2307 50.22 10.234 50.0767 10.2407 49.97C10.2607 49.5233 10.3607 49.13 10.5407 48.79C10.7274 48.45 10.9907 48.1833 11.3307 47.99C11.6707 47.7967 12.0907 47.7 12.5907 47.7C13.0907 47.7 13.5107 47.7967 13.8507 47.99C14.1907 48.1833 14.4507 48.45 14.6307 48.79C14.8174 49.13 14.9207 49.5233 14.9407 49.97C14.9474 50.0767 14.9507 50.22 14.9507 50.4C14.9507 50.5733 14.9474 50.7167 14.9407 50.83C14.9207 51.27 14.8207 51.6633 14.6407 52.01C14.4607 52.35 14.2007 52.6167 13.8607 52.81C13.5207 53.0033 13.0974 53.1 12.5907 53.1ZM12.5907 52.33C13.004 52.33 13.334 52.2 13.5807 51.94C13.8274 51.6733 13.9607 51.2867 13.9807 50.78C13.9874 50.68 13.9907 50.5533 13.9907 50.4C13.9907 50.2467 13.9874 50.12 13.9807 50.02C13.9607 49.5133 13.8274 49.13 13.5807 48.87C13.334 48.6033 13.004 48.47 12.5907 48.47C12.1774 48.47 11.844 48.6033 11.5907 48.87C11.344 49.13 11.214 49.5133 11.2007 50.02C11.194 50.12 11.1907 50.2467 11.1907 50.4C11.1907 50.5533 11.194 50.68 11.2007 50.78C11.214 51.2867 11.344 51.6733 11.5907 51.94C11.844 52.2 12.1774 52.33 12.5907 52.33ZM18.3029 53.1C17.8296 53.1 17.4196 53.01 17.0729 52.83C16.7329 52.6433 16.4696 52.38 16.2829 52.04C16.0962 51.6933 15.9962 51.28 15.9829 50.8C15.9762 50.7 15.9729 50.5667 15.9729 50.4C15.9729 50.2333 15.9762 50.1 15.9829 50C15.9962 49.52 16.0962 49.11 16.2829 48.77C16.4696 48.4233 16.7329 48.16 17.0729 47.98C17.4196 47.7933 17.8296 47.7 18.3029 47.7C18.6896 47.7 19.0196 47.7533 19.2929 47.86C19.5729 47.9667 19.8029 48.1033 19.9829 48.27C20.1629 48.4367 20.2962 48.6167 20.3829 48.81C20.4762 49.0033 20.5262 49.1867 20.5329 49.36C20.5396 49.4267 20.5196 49.48 20.4729 49.52C20.4262 49.56 20.3696 49.58 20.3029 49.58H19.8229C19.7562 49.58 19.7062 49.5667 19.6729 49.54C19.6396 49.5067 19.6062 49.4533 19.5729 49.38C19.4529 49.0533 19.2896 48.8233 19.0829 48.69C18.8762 48.5567 18.6196 48.49 18.3129 48.49C17.9129 48.49 17.5862 48.6133 17.3329 48.86C17.0862 49.1067 16.9529 49.5033 16.9329 50.05C16.9262 50.29 16.9262 50.5233 16.9329 50.75C16.9529 51.3033 17.0862 51.7033 17.3329 51.95C17.5862 52.19 17.9129 52.31 18.3129 52.31C18.6196 52.31 18.8762 52.2433 19.0829 52.11C19.2896 51.9767 19.4529 51.7467 19.5729 51.42C19.6062 51.3467 19.6396 51.2967 19.6729 51.27C19.7062 51.2367 19.7562 51.22 19.8229 51.22H20.3029C20.3696 51.22 20.4262 51.24 20.4729 51.28C20.5196 51.32 20.5396 51.3733 20.5329 51.44C20.5262 51.58 20.4962 51.7233 20.4429 51.87C20.3896 52.0167 20.3029 52.1667 20.1829 52.32C20.0696 52.4667 19.9262 52.6 19.7529 52.72C19.5796 52.8333 19.3696 52.9267 19.1229 53C18.8829 53.0667 18.6096 53.1 18.3029 53.1ZM21.9505 53C21.8838 53 21.8271 52.98 21.7805 52.94C21.7405 52.8933 21.7205 52.8367 21.7205 52.77V48.03C21.7205 47.9633 21.7405 47.91 21.7805 47.87C21.8271 47.8233 21.8838 47.8 21.9505 47.8H22.4305C22.4971 47.8 22.5505 47.8233 22.5905 47.87C22.6305 47.91 22.6505 47.9633 22.6505 48.03V52.77C22.6505 52.8367 22.6305 52.8933 22.5905 52.94C22.5505 52.98 22.4971 53 22.4305 53H21.9505ZM21.8705 46.83C21.8038 46.83 21.7471 46.81 21.7005 46.77C21.6605 46.7233 21.6405 46.6667 21.6405 46.6V46.06C21.6405 45.9933 21.6605 45.94 21.7005 45.9C21.7471 45.8533 21.8038 45.83 21.8705 45.83H22.5005C22.5671 45.83 22.6205 45.8533 22.6605 45.9C22.7071 45.94 22.7305 45.9933 22.7305 46.06V46.6C22.7305 46.6667 22.7071 46.7233 22.6605 46.77C22.6205 46.81 22.5671 46.83 22.5005 46.83H21.8705ZM25.5923 53.1C25.259 53.1 24.9557 53.0333 24.6823 52.9C24.409 52.7667 24.189 52.5867 24.0223 52.36C23.8557 52.1333 23.7723 51.8767 23.7723 51.59C23.7723 51.13 23.959 50.7633 24.3323 50.49C24.7057 50.2167 25.1923 50.0367 25.7923 49.95L27.2823 49.74V49.45C27.2823 49.13 27.189 48.88 27.0023 48.7C26.8223 48.52 26.5257 48.43 26.1123 48.43C25.8123 48.43 25.569 48.49 25.3823 48.61C25.2023 48.73 25.0757 48.8833 25.0023 49.07C24.9623 49.17 24.8923 49.22 24.7923 49.22H24.3423C24.269 49.22 24.2123 49.2 24.1723 49.16C24.139 49.1133 24.1223 49.06 24.1223 49C24.1223 48.9 24.159 48.7767 24.2323 48.63C24.3123 48.4833 24.4323 48.34 24.5923 48.2C24.7523 48.06 24.9557 47.9433 25.2023 47.85C25.4557 47.75 25.7623 47.7 26.1223 47.7C26.5223 47.7 26.859 47.7533 27.1323 47.86C27.4057 47.96 27.619 48.0967 27.7723 48.27C27.9323 48.4433 28.0457 48.64 28.1123 48.86C28.1857 49.08 28.2223 49.3033 28.2223 49.53V52.77C28.2223 52.8367 28.199 52.8933 28.1523 52.94C28.1123 52.98 28.059 53 27.9923 53H27.5323C27.459 53 27.4023 52.98 27.3623 52.94C27.3223 52.8933 27.3023 52.8367 27.3023 52.77V52.34C27.2157 52.46 27.099 52.58 26.9523 52.7C26.8057 52.8133 26.6223 52.91 26.4023 52.99C26.1823 53.0633 25.9123 53.1 25.5923 53.1ZM25.8023 52.35C26.0757 52.35 26.3257 52.2933 26.5523 52.18C26.779 52.06 26.9557 51.8767 27.0823 51.63C27.2157 51.3833 27.2823 51.0733 27.2823 50.7V50.42L26.1223 50.59C25.649 50.6567 25.2923 50.77 25.0523 50.93C24.8123 51.0833 24.6923 51.28 24.6923 51.52C24.6923 51.7067 24.7457 51.8633 24.8523 51.99C24.9657 52.11 25.1057 52.2 25.2723 52.26C25.4457 52.32 25.6223 52.35 25.8023 52.35ZM29.8999 53C29.8333 53 29.7766 52.98 29.7299 52.94C29.6899 52.8933 29.6699 52.8367 29.6699 52.77V46.13C29.6699 46.0633 29.6899 46.01 29.7299 45.97C29.7766 45.9233 29.8333 45.9 29.8999 45.9H30.3699C30.4433 45.9 30.4999 45.9233 30.5399 45.97C30.5799 46.01 30.5999 46.0633 30.5999 46.13V52.77C30.5999 52.8367 30.5799 52.8933 30.5399 52.94C30.4999 52.98 30.4433 53 30.3699 53H29.8999ZM33.8916 53.1C33.5182 53.1 33.1982 53.0533 32.9316 52.96C32.6649 52.8667 32.4482 52.7533 32.2816 52.62C32.1149 52.4867 31.9882 52.3533 31.9016 52.22C31.8216 52.0867 31.7782 51.98 31.7716 51.9C31.7649 51.8267 31.7882 51.77 31.8416 51.73C31.8949 51.69 31.9482 51.67 32.0016 51.67H32.4416C32.4816 51.67 32.5116 51.6767 32.5316 51.69C32.5582 51.6967 32.5916 51.7233 32.6316 51.77C32.7182 51.8633 32.8149 51.9567 32.9216 52.05C33.0282 52.1433 33.1582 52.22 33.3116 52.28C33.4716 52.34 33.6682 52.37 33.9016 52.37C34.2416 52.37 34.5216 52.3067 34.7416 52.18C34.9616 52.0467 35.0716 51.8533 35.0716 51.6C35.0716 51.4333 35.0249 51.3 34.9316 51.2C34.8449 51.1 34.6849 51.01 34.4516 50.93C34.2249 50.85 33.9116 50.7667 33.5116 50.68C33.1116 50.5867 32.7949 50.4733 32.5616 50.34C32.3282 50.2 32.1616 50.0367 32.0616 49.85C31.9616 49.6567 31.9116 49.44 31.9116 49.2C31.9116 48.9533 31.9849 48.7167 32.1316 48.49C32.2782 48.2567 32.4916 48.0667 32.7716 47.92C33.0582 47.7733 33.4149 47.7 33.8416 47.7C34.1882 47.7 34.4849 47.7433 34.7316 47.83C34.9782 47.9167 35.1816 48.0267 35.3416 48.16C35.5016 48.2867 35.6216 48.4133 35.7016 48.54C35.7816 48.6667 35.8249 48.7733 35.8316 48.86C35.8382 48.9267 35.8182 48.9833 35.7716 49.03C35.7249 49.07 35.6716 49.09 35.6116 49.09H35.1916C35.1449 49.09 35.1049 49.08 35.0716 49.06C35.0449 49.04 35.0182 49.0167 34.9916 48.99C34.9249 48.9033 34.8449 48.8167 34.7516 48.73C34.6649 48.6433 34.5482 48.5733 34.4016 48.52C34.2616 48.46 34.0749 48.43 33.8416 48.43C33.5082 48.43 33.2582 48.5 33.0916 48.64C32.9249 48.78 32.8416 48.9567 32.8416 49.17C32.8416 49.2967 32.8782 49.41 32.9516 49.51C33.0249 49.61 33.1649 49.7 33.3716 49.78C33.5782 49.86 33.8849 49.9467 34.2916 50.04C34.7316 50.1267 35.0782 50.2433 35.3316 50.39C35.5849 50.5367 35.7649 50.7067 35.8716 50.9C35.9782 51.0933 36.0316 51.3167 36.0316 51.57C36.0316 51.85 35.9482 52.1067 35.7816 52.34C35.6216 52.5733 35.3816 52.76 35.0616 52.9C34.7482 53.0333 34.3582 53.1 33.8916 53.1Z" fill="#8C867B"/>
<defs>
<linearGradient id="paint0_linear_10_768" x1="34.0224" y1="34.0224" x2="16.5699" y2="20.426" gradientUnits="userSpaceOnUse">
<stop stop-color="#ECAF5A"/>
<stop offset="1" stop-color="#89683D"/>
</linearGradient>
<linearGradient id="paint1_linear_10_768" x1="37.5" y1="37.5" x2="15.7193" y2="20.5316" gradientUnits="userSpaceOnUse">
<stop stop-color="#ECAF5A"/>
<stop offset="1" stop-color="#89683D"/>
</linearGradient>
<radialGradient id="paint2_radial_10_768" cx="0" cy="0" r="1" gradientUnits="userSpaceOnUse" gradientTransform="translate(-24.5396 65.8503) scale(141.798 85.6159)">
<stop stop-color="#835D2D"/>
<stop offset="0.24" stop-color="#8A6331"/>
<stop offset="1" stop-color="#F8E07F"/>
</radialGradient>
</defs>
</svg>
