<svg width="58" height="60" viewBox="0 0 58 60" fill="none" xmlns="http://www.w3.org/2000/svg">
<path d="M36.7081 29.7939L36.7083 29.7937C37.7455 29.0457 38.6617 28.1385 39.4237 27.1048C40.7782 25.2645 41.6011 23.0785 41.8003 20.791C41.9994 18.5035 41.5668 16.2051 40.5511 14.1527C39.5354 12.1003 37.9767 10.3751 36.0497 9.16935C34.1228 7.96364 31.9033 7.32472 29.6391 7.32361L36.7081 29.7939ZM36.7081 29.7939C35.6613 30.5501 34.5027 31.133 33.2757 31.5211C33.2757 31.5211 33.2756 31.5211 33.2756 31.5211L32.9213 31.6331L32.8233 31.6641M36.7081 29.7939L32.8233 31.6641M32.8233 31.6641L32.7649 31.7486M32.8233 31.6641L32.7649 31.7486M32.7649 31.7486L32.552 32.0567L29.8331 35.9918C29.8102 36.0249 29.78 36.0515 29.7455 36.0698C29.7109 36.088 29.6727 36.0974 29.6342 36.0974C29.5956 36.0974 29.5575 36.088 29.5229 36.0698L29.3829 36.3351M32.7649 31.7486L29.3829 36.3351M29.3829 36.3351L29.5229 36.0698C29.4883 36.0515 29.4582 36.0249 29.4353 35.9918L29.1885 36.1623L29.4353 35.9918L26.7164 32.0567L26.5035 31.7486L26.4451 31.6641M29.3829 36.3351L26.4451 31.6641M26.4451 31.6641L26.3471 31.6331M26.4451 31.6641L26.3471 31.6331M26.3471 31.6331L25.993 31.5211M26.3471 31.6331L25.993 31.5211M25.993 31.5211L25.9927 31.5211C23.2072 30.6378 20.825 28.7727 19.2784 26.2625C17.7317 23.7522 17.1233 20.7631 17.5639 17.8368C18.0046 14.9106 19.4649 12.2418 21.6794 10.3136C23.8938 8.38542 26.7158 7.32505 29.6342 7.32361C29.6343 7.32361 29.6343 7.32361 29.6344 7.32361H29.639L25.993 31.5211ZM29.6397 5.62114H29.6396H29.6342C21.9724 5.62114 15.7327 11.9482 15.7327 19.702C15.7327 25.9774 19.7861 31.2961 25.3894 33.1141L28.0503 36.9651C28.2281 37.2224 28.4647 37.4329 28.7405 37.5784C29.0163 37.7238 29.3228 37.7999 29.6342 37.7999C29.9455 37.7999 30.2521 37.7238 30.5279 37.5784C30.8036 37.4329 31.0403 37.2224 31.2181 36.9651L33.8789 33.1141C39.4822 31.2961 43.5357 25.9774 43.5357 19.702C43.5357 11.9309 37.3184 5.62416 29.6397 5.62114Z" fill="url(#paint0_linear_10_775)"/>
<path d="M36.7081 29.7939L36.7083 29.7937C37.7455 29.0457 38.6617 28.1385 39.4237 27.1048C40.7782 25.2645 41.6011 23.0785 41.8003 20.791C41.9994 18.5035 41.5668 16.2051 40.5511 14.1527C39.5354 12.1003 37.9767 10.3751 36.0497 9.16935C34.1228 7.96364 31.9033 7.32472 29.6391 7.32361L36.7081 29.7939ZM36.7081 29.7939C35.6613 30.5501 34.5027 31.133 33.2757 31.5211C33.2757 31.5211 33.2756 31.5211 33.2756 31.5211L32.9213 31.6331L32.8233 31.6641M36.7081 29.7939L32.8233 31.6641M32.8233 31.6641L32.7649 31.7486M32.8233 31.6641L32.7649 31.7486M32.7649 31.7486L32.552 32.0567L29.8331 35.9918C29.8102 36.0249 29.78 36.0515 29.7455 36.0698C29.7109 36.088 29.6727 36.0974 29.6342 36.0974C29.5956 36.0974 29.5575 36.088 29.5229 36.0698L29.3829 36.3351M32.7649 31.7486L29.3829 36.3351M29.3829 36.3351L29.5229 36.0698C29.4883 36.0515 29.4582 36.0249 29.4353 35.9918L29.1885 36.1623L29.4353 35.9918L26.7164 32.0567L26.5035 31.7486L26.4451 31.6641M29.3829 36.3351L26.4451 31.6641M26.4451 31.6641L26.3471 31.6331M26.4451 31.6641L26.3471 31.6331M26.3471 31.6331L25.993 31.5211M26.3471 31.6331L25.993 31.5211M25.993 31.5211L25.9927 31.5211C23.2072 30.6378 20.825 28.7727 19.2784 26.2625C17.7317 23.7522 17.1233 20.7631 17.5639 17.8368C18.0046 14.9106 19.4649 12.2418 21.6794 10.3136C23.8938 8.38542 26.7158 7.32505 29.6342 7.32361C29.6343 7.32361 29.6343 7.32361 29.6344 7.32361H29.639L25.993 31.5211ZM29.6397 5.62114H29.6396H29.6342C21.9724 5.62114 15.7327 11.9482 15.7327 19.702C15.7327 25.9774 19.7861 31.2961 25.3894 33.1141L28.0503 36.9651C28.2281 37.2224 28.4647 37.4329 28.7405 37.5784C29.0163 37.7238 29.3228 37.7999 29.6342 37.7999C29.9455 37.7999 30.2521 37.7238 30.5279 37.5784C30.8036 37.4329 31.0403 37.2224 31.2181 36.9651L33.8789 33.1141C39.4822 31.2961 43.5357 25.9774 43.5357 19.702C43.5357 11.9309 37.3184 5.62416 29.6397 5.62114Z" fill="#D1D2D7" fill-opacity="0.3"/>
<path d="M36.7081 29.7939L36.7083 29.7937C37.7455 29.0457 38.6617 28.1385 39.4237 27.1048C40.7782 25.2645 41.6011 23.0785 41.8003 20.791C41.9994 18.5035 41.5668 16.2051 40.5511 14.1527C39.5354 12.1003 37.9767 10.3751 36.0497 9.16935C34.1228 7.96364 31.9033 7.32472 29.6391 7.32361L36.7081 29.7939ZM36.7081 29.7939C35.6613 30.5501 34.5027 31.133 33.2757 31.5211C33.2757 31.5211 33.2756 31.5211 33.2756 31.5211L32.9213 31.6331L32.8233 31.6641M36.7081 29.7939L32.8233 31.6641M32.8233 31.6641L32.7649 31.7486M32.8233 31.6641L32.7649 31.7486M32.7649 31.7486L32.552 32.0567L29.8331 35.9918C29.8102 36.0249 29.78 36.0515 29.7455 36.0698C29.7109 36.088 29.6727 36.0974 29.6342 36.0974C29.5956 36.0974 29.5575 36.088 29.5229 36.0698L29.3829 36.3351M32.7649 31.7486L29.3829 36.3351M29.3829 36.3351L29.5229 36.0698C29.4883 36.0515 29.4582 36.0249 29.4353 35.9918L29.1885 36.1623L29.4353 35.9918L26.7164 32.0567L26.5035 31.7486L26.4451 31.6641M29.3829 36.3351L26.4451 31.6641M26.4451 31.6641L26.3471 31.6331M26.4451 31.6641L26.3471 31.6331M26.3471 31.6331L25.993 31.5211M26.3471 31.6331L25.993 31.5211M25.993 31.5211L25.9927 31.5211C23.2072 30.6378 20.825 28.7727 19.2784 26.2625C17.7317 23.7522 17.1233 20.7631 17.5639 17.8368C18.0046 14.9106 19.4649 12.2418 21.6794 10.3136C23.8938 8.38542 26.7158 7.32505 29.6342 7.32361C29.6343 7.32361 29.6343 7.32361 29.6344 7.32361H29.639L25.993 31.5211ZM29.6397 5.62114H29.6396H29.6342C21.9724 5.62114 15.7327 11.9482 15.7327 19.702C15.7327 25.9774 19.7861 31.2961 25.3894 33.1141L28.0503 36.9651C28.2281 37.2224 28.4647 37.4329 28.7405 37.5784C29.0163 37.7238 29.3228 37.7999 29.6342 37.7999C29.9455 37.7999 30.2521 37.7238 30.5279 37.5784C30.8036 37.4329 31.0403 37.2224 31.2181 36.9651L33.8789 33.1141C39.4822 31.2961 43.5357 25.9774 43.5357 19.702C43.5357 11.9309 37.3184 5.62416 29.6397 5.62114Z" stroke="url(#paint1_linear_10_775)" stroke-width="0.6"/>
<path d="M36.7081 29.7939L36.7083 29.7937C37.7455 29.0457 38.6617 28.1385 39.4237 27.1048C40.7782 25.2645 41.6011 23.0785 41.8003 20.791C41.9994 18.5035 41.5668 16.2051 40.5511 14.1527C39.5354 12.1003 37.9767 10.3751 36.0497 9.16935C34.1228 7.96364 31.9033 7.32472 29.6391 7.32361L36.7081 29.7939ZM36.7081 29.7939C35.6613 30.5501 34.5027 31.133 33.2757 31.5211C33.2757 31.5211 33.2756 31.5211 33.2756 31.5211L32.9213 31.6331L32.8233 31.6641M36.7081 29.7939L32.8233 31.6641M32.8233 31.6641L32.7649 31.7486M32.8233 31.6641L32.7649 31.7486M32.7649 31.7486L32.552 32.0567L29.8331 35.9918C29.8102 36.0249 29.78 36.0515 29.7455 36.0698C29.7109 36.088 29.6727 36.0974 29.6342 36.0974C29.5956 36.0974 29.5575 36.088 29.5229 36.0698L29.3829 36.3351M32.7649 31.7486L29.3829 36.3351M29.3829 36.3351L29.5229 36.0698C29.4883 36.0515 29.4582 36.0249 29.4353 35.9918L29.1885 36.1623L29.4353 35.9918L26.7164 32.0567L26.5035 31.7486L26.4451 31.6641M29.3829 36.3351L26.4451 31.6641M26.4451 31.6641L26.3471 31.6331M26.4451 31.6641L26.3471 31.6331M26.3471 31.6331L25.993 31.5211M26.3471 31.6331L25.993 31.5211M25.993 31.5211L25.9927 31.5211C23.2072 30.6378 20.825 28.7727 19.2784 26.2625C17.7317 23.7522 17.1233 20.7631 17.5639 17.8368C18.0046 14.9106 19.4649 12.2418 21.6794 10.3136C23.8938 8.38542 26.7158 7.32505 29.6342 7.32361C29.6343 7.32361 29.6343 7.32361 29.6344 7.32361H29.639L25.993 31.5211ZM29.6397 5.62114H29.6396H29.6342C21.9724 5.62114 15.7327 11.9482 15.7327 19.702C15.7327 25.9774 19.7861 31.2961 25.3894 33.1141L28.0503 36.9651C28.2281 37.2224 28.4647 37.4329 28.7405 37.5784C29.0163 37.7238 29.3228 37.7999 29.6342 37.7999C29.9455 37.7999 30.2521 37.7238 30.5279 37.5784C30.8036 37.4329 31.0403 37.2224 31.2181 36.9651L33.8789 33.1141C39.4822 31.2961 43.5357 25.9774 43.5357 19.702C43.5357 11.9309 37.3184 5.62416 29.6397 5.62114Z" stroke="#D1D2D7" stroke-opacity="0.3" stroke-width="0.6"/>
<path d="M37.5287 34.8689L37.4577 34.7348L36.9435 33.7632L36.8741 33.6322L37.0043 33.5613C38.3583 32.8241 39.598 31.8892 40.6838 30.7866L40.6839 30.7865C43.6361 27.7955 45.2619 23.8191 45.2619 19.5882C45.2619 15.3575 43.6361 11.381 40.6839 8.38996C37.7319 5.39898 33.8081 3.75247 29.6342 3.75247C25.4602 3.75247 21.5364 5.39898 18.5844 8.38996L18.4777 8.28459L18.5844 8.38996C15.6323 11.381 14.0064 15.3574 14.0064 19.5883C14.0063 20.4888 14.0808 21.3878 14.2291 22.2757C14.2291 22.2757 14.2291 22.2757 14.2291 22.2758L14.0811 22.3005C14.1011 22.4194 14.0991 22.5401 14.0971 22.6606C14.0949 22.7954 14.0927 22.9299 14.1212 23.0614L37.5287 34.8689ZM37.5287 34.8689L37.662 34.7963C39.1358 33.994 40.4852 32.9766 41.6669 31.7768L37.5287 34.8689Z" fill="url(#paint2_linear_10_775)"/>
<path d="M37.5287 34.8689L37.4577 34.7348L36.9435 33.7632L36.8741 33.6322L37.0043 33.5613C38.3583 32.8241 39.598 31.8892 40.6838 30.7866L40.6839 30.7865C43.6361 27.7955 45.2619 23.8191 45.2619 19.5882C45.2619 15.3575 43.6361 11.381 40.6839 8.38996C37.7319 5.39898 33.8081 3.75247 29.6342 3.75247C25.4602 3.75247 21.5364 5.39898 18.5844 8.38996L18.4777 8.28459L18.5844 8.38996C15.6323 11.381 14.0064 15.3574 14.0064 19.5883C14.0063 20.4888 14.0808 21.3878 14.2291 22.2757C14.2291 22.2757 14.2291 22.2757 14.2291 22.2758L14.0811 22.3005C14.1011 22.4194 14.0991 22.5401 14.0971 22.6606C14.0949 22.7954 14.0927 22.9299 14.1212 23.0614L37.5287 34.8689ZM37.5287 34.8689L37.662 34.7963C39.1358 33.994 40.4852 32.9766 41.6669 31.7768L37.5287 34.8689Z" fill="#D1D2D7" fill-opacity="0.2"/>
<path d="M37.5287 34.8689L37.4577 34.7348L36.9435 33.7632L36.8741 33.6322L37.0043 33.5613C38.3583 32.8241 39.598 31.8892 40.6838 30.7866L40.6839 30.7865C43.6361 27.7955 45.2619 23.8191 45.2619 19.5882C45.2619 15.3575 43.6361 11.381 40.6839 8.38996C37.7319 5.39898 33.8081 3.75247 29.6342 3.75247C25.4602 3.75247 21.5364 5.39898 18.5844 8.38996L18.4777 8.28459L18.5844 8.38996C15.6323 11.381 14.0064 15.3574 14.0064 19.5883C14.0063 20.4888 14.0808 21.3878 14.2291 22.2757C14.2291 22.2757 14.2291 22.2757 14.2291 22.2758L14.0811 22.3005C14.1011 22.4194 14.0991 22.5401 14.0971 22.6606C14.0949 22.7954 14.0927 22.9299 14.1212 23.0614L37.5287 34.8689ZM37.5287 34.8689L37.662 34.7963C39.1358 33.994 40.4852 32.9766 41.6669 31.7768L37.5287 34.8689Z" stroke="url(#paint3_linear_10_775)" stroke-width="0.3"/>
<path d="M37.5287 34.8689L37.4577 34.7348L36.9435 33.7632L36.8741 33.6322L37.0043 33.5613C38.3583 32.8241 39.598 31.8892 40.6838 30.7866L40.6839 30.7865C43.6361 27.7955 45.2619 23.8191 45.2619 19.5882C45.2619 15.3575 43.6361 11.381 40.6839 8.38996C37.7319 5.39898 33.8081 3.75247 29.6342 3.75247C25.4602 3.75247 21.5364 5.39898 18.5844 8.38996L18.4777 8.28459L18.5844 8.38996C15.6323 11.381 14.0064 15.3574 14.0064 19.5883C14.0063 20.4888 14.0808 21.3878 14.2291 22.2757C14.2291 22.2757 14.2291 22.2757 14.2291 22.2758L14.0811 22.3005C14.1011 22.4194 14.0991 22.5401 14.0971 22.6606C14.0949 22.7954 14.0927 22.9299 14.1212 23.0614L37.5287 34.8689ZM37.5287 34.8689L37.662 34.7963C39.1358 33.994 40.4852 32.9766 41.6669 31.7768L37.5287 34.8689Z" stroke="#D1D2D7" stroke-opacity="0.3" stroke-width="0.3"/>
<path d="M37.942 35.6783C39.1369 34.8767 39.7322 33.6554 39.2716 32.9505C38.8109 32.2456 37.4688 32.3241 36.2738 33.1257C35.0789 33.9274 34.4836 35.1486 34.9442 35.8535C35.4049 36.5584 36.747 36.48 37.942 35.6783Z" fill="url(#paint4_linear_10_775)"/>
<path d="M22.9929 21.8654H25.073C25.2802 21.8654 25.4383 21.9084 25.5472 21.9946C25.6002 22.0356 25.6427 22.0889 25.6711 22.15C25.6996 22.2112 25.7131 22.2783 25.7106 22.3458C25.7119 22.4076 25.7012 22.469 25.679 22.5265C25.6568 22.584 25.6235 22.6365 25.5811 22.6809C25.4947 22.7725 25.3639 22.8182 25.1886 22.8182H22.2557C22.0565 22.8182 21.9011 22.7623 21.7895 22.6506C21.7364 22.6002 21.6941 22.5393 21.6653 22.4715C21.6365 22.4038 21.6218 22.3308 21.6222 22.257C21.6222 22.1601 21.658 22.0316 21.7298 21.8714C21.7874 21.7335 21.8668 21.606 21.9649 21.4939C22.3181 21.1225 22.6369 20.8042 22.9212 20.5391C23.2055 20.274 23.4087 20.0998 23.5309 20.0163C23.7275 19.8786 23.9098 19.721 24.0748 19.5459C24.2097 19.4031 24.3213 19.2396 24.4055 19.0614C24.4781 18.9097 24.5169 18.7436 24.5191 18.5749C24.5217 18.4124 24.4796 18.2524 24.3976 18.1127C24.3181 17.9783 24.2037 17.8686 24.0669 17.7957C23.9264 17.7202 23.7696 17.6813 23.6106 17.6827C23.2625 17.6827 22.9889 17.8374 22.7897 18.147C22.7631 18.1874 22.7187 18.2977 22.6562 18.478C22.6096 18.6278 22.5382 18.7684 22.445 18.8939C22.3666 18.9908 22.2517 19.0392 22.1003 19.0392C22.0392 19.0411 21.9782 19.0302 21.9214 19.0073C21.8645 18.9844 21.8128 18.9499 21.7696 18.906C21.6819 18.8172 21.6381 18.6961 21.6381 18.5426C21.6411 18.3425 21.6831 18.1449 21.7616 17.9613C21.8469 17.755 21.9722 17.5683 22.1303 17.4122C22.3087 17.2383 22.5202 17.1029 22.7519 17.0145C23.0029 16.9136 23.2971 16.8631 23.6345 16.8631C24.0409 16.8631 24.3876 16.9277 24.6745 17.0569C24.8591 17.1421 25.0255 17.2627 25.1647 17.4122C25.4506 17.7206 25.6102 18.1276 25.6109 18.5507C25.6145 18.8714 25.5296 19.1867 25.3659 19.4611C25.2025 19.7344 25.0358 19.9483 24.8658 20.1031C24.6958 20.2579 24.4109 20.5008 24.0111 20.8318C23.6112 21.1629 23.3369 21.4199 23.1882 21.603C23.117 21.6856 23.0517 21.7733 22.9929 21.8654Z" fill="#D5B690"/>
<path d="M22.9929 21.8654H25.073C25.2802 21.8654 25.4383 21.9084 25.5472 21.9946C25.6002 22.0356 25.6427 22.0889 25.6711 22.15C25.6996 22.2112 25.7131 22.2783 25.7106 22.3458C25.7119 22.4076 25.7012 22.469 25.679 22.5265C25.6568 22.584 25.6235 22.6365 25.5811 22.6809C25.4947 22.7725 25.3639 22.8182 25.1886 22.8182H22.2557C22.0565 22.8182 21.9011 22.7623 21.7895 22.6506C21.7364 22.6002 21.6941 22.5393 21.6653 22.4715C21.6365 22.4038 21.6218 22.3308 21.6222 22.257C21.6222 22.1601 21.658 22.0316 21.7298 21.8714C21.7874 21.7335 21.8668 21.606 21.9649 21.4939C22.3181 21.1225 22.6369 20.8042 22.9212 20.5391C23.2055 20.274 23.4087 20.0998 23.5309 20.0163C23.7275 19.8786 23.9098 19.721 24.0748 19.5459C24.2097 19.4031 24.3213 19.2396 24.4055 19.0614C24.4781 18.9097 24.5169 18.7436 24.5191 18.5749C24.5217 18.4124 24.4796 18.2524 24.3976 18.1127C24.3181 17.9783 24.2037 17.8686 24.0669 17.7957C23.9264 17.7202 23.7696 17.6813 23.6106 17.6827C23.2625 17.6827 22.9889 17.8374 22.7897 18.147C22.7631 18.1874 22.7187 18.2977 22.6562 18.478C22.6096 18.6278 22.5382 18.7684 22.445 18.8939C22.3666 18.9908 22.2517 19.0392 22.1003 19.0392C22.0392 19.0411 21.9782 19.0302 21.9214 19.0073C21.8645 18.9844 21.8128 18.9499 21.7696 18.906C21.6819 18.8172 21.6381 18.6961 21.6381 18.5426C21.6411 18.3425 21.6831 18.1449 21.7616 17.9613C21.8469 17.755 21.9722 17.5683 22.1303 17.4122C22.3087 17.2383 22.5202 17.1029 22.7519 17.0145C23.0029 16.9136 23.2971 16.8631 23.6345 16.8631C24.0409 16.8631 24.3876 16.9277 24.6745 17.0569C24.8591 17.1421 25.0255 17.2627 25.1647 17.4122C25.4506 17.7206 25.6102 18.1276 25.6109 18.5507C25.6145 18.8714 25.5296 19.1867 25.3659 19.4611C25.2025 19.7344 25.0358 19.9483 24.8658 20.1031C24.6958 20.2579 24.4109 20.5008 24.0111 20.8318C23.6112 21.1629 23.3369 21.4199 23.1882 21.603C23.117 21.6856 23.0517 21.7733 22.9929 21.8654Z" fill="#D9BA66" fill-opacity="0.2"/>
<path d="M28.8782 22.1919V21.441H26.8779C26.6255 21.441 26.4362 21.3831 26.3101 21.2674C26.1838 21.1517 26.1207 20.9942 26.1208 20.795C26.1211 20.7419 26.1305 20.6893 26.1486 20.6396C26.1701 20.5813 26.1982 20.5257 26.2323 20.474C26.2695 20.4162 26.308 20.3603 26.3479 20.3065C26.3877 20.2527 26.4369 20.1867 26.4953 20.1086L28.6073 17.2462C28.7095 17.1003 28.8235 16.9632 28.948 16.8364C29.0341 16.7527 29.1495 16.707 29.2688 16.7092C29.6726 16.7092 29.8745 16.9434 29.8745 17.4117V20.5366H30.0458C30.2503 20.5366 30.4144 20.5649 30.5379 20.6214C30.6615 20.6779 30.7232 20.8017 30.7232 20.9928C30.7232 21.149 30.6727 21.2627 30.5718 21.334C30.4708 21.4053 30.3194 21.441 30.1175 21.441H29.8745V22.1919C29.8745 22.3992 29.8293 22.5533 29.739 22.6542C29.6915 22.7025 29.635 22.7408 29.5727 22.7668C29.5105 22.7928 29.4438 22.806 29.3765 22.8056C29.3092 22.8052 29.2426 22.7913 29.1807 22.7646C29.1187 22.7379 29.0627 22.699 29.0157 22.6502C28.9241 22.5466 28.8783 22.3938 28.8782 22.1919ZM27.1648 20.5366H28.8782V18.1909L27.1648 20.5366Z" fill="#D5B690"/>
<path d="M28.8782 22.1919V21.441H26.8779C26.6255 21.441 26.4362 21.3831 26.3101 21.2674C26.1838 21.1517 26.1207 20.9942 26.1208 20.795C26.1211 20.7419 26.1305 20.6893 26.1486 20.6396C26.1701 20.5813 26.1982 20.5257 26.2323 20.474C26.2695 20.4162 26.308 20.3603 26.3479 20.3065C26.3877 20.2527 26.4369 20.1867 26.4953 20.1086L28.6073 17.2462C28.7095 17.1003 28.8235 16.9632 28.948 16.8364C29.0341 16.7527 29.1495 16.707 29.2688 16.7092C29.6726 16.7092 29.8745 16.9434 29.8745 17.4117V20.5366H30.0458C30.2503 20.5366 30.4144 20.5649 30.5379 20.6214C30.6615 20.6779 30.7232 20.8017 30.7232 20.9928C30.7232 21.149 30.6727 21.2627 30.5718 21.334C30.4708 21.4053 30.3194 21.441 30.1175 21.441H29.8745V22.1919C29.8745 22.3992 29.8293 22.5533 29.739 22.6542C29.6915 22.7025 29.635 22.7408 29.5727 22.7668C29.5105 22.7928 29.4438 22.806 29.3765 22.8056C29.3092 22.8052 29.2426 22.7913 29.1807 22.7646C29.1187 22.7379 29.0627 22.699 29.0157 22.6502C28.9241 22.5466 28.8783 22.3938 28.8782 22.1919ZM27.1648 20.5366H28.8782V18.1909L27.1648 20.5366Z" fill="#D9BA66" fill-opacity="0.2"/>
<path d="M32.9748 17.5045L31.8591 22.1596C31.8219 22.313 31.7893 22.4341 31.7615 22.523C31.739 22.603 31.6949 22.6751 31.6339 22.7309C31.5768 22.7806 31.4938 22.8055 31.3849 22.8056C31.1139 22.8056 30.9785 22.6871 30.9785 22.4503C30.9785 22.3884 31.005 22.2336 31.0582 21.986L32.1699 17.3309C32.2283 17.0833 32.2841 16.9137 32.3373 16.8222C32.3904 16.7307 32.494 16.685 32.6481 16.6849C32.7809 16.6849 32.8825 16.7172 32.953 16.7818C32.9886 16.8158 33.0165 16.8573 33.0347 16.9033C33.053 16.9493 33.0611 16.9988 33.0585 17.0483C33.0585 17.1318 33.0306 17.2838 32.9748 17.5045Z" fill="#D5B690"/>
<path d="M32.9748 17.5045L31.8591 22.1596C31.8219 22.313 31.7893 22.4341 31.7615 22.523C31.739 22.603 31.6949 22.6751 31.6339 22.7309C31.5768 22.7806 31.4938 22.8055 31.3849 22.8056C31.1139 22.8056 30.9785 22.6871 30.9785 22.4503C30.9785 22.3884 31.005 22.2336 31.0582 21.986L32.1699 17.3309C32.2283 17.0833 32.2841 16.9137 32.3373 16.8222C32.3904 16.7307 32.494 16.685 32.6481 16.6849C32.7809 16.6849 32.8825 16.7172 32.953 16.7818C32.9886 16.8158 33.0165 16.8573 33.0347 16.9033C33.053 16.9493 33.0611 16.9988 33.0585 17.0483C33.0585 17.1318 33.0306 17.2838 32.9748 17.5045Z" fill="#D9BA66" fill-opacity="0.2"/>
<path d="M34.433 16.8426H37.0869C37.3419 16.8426 37.5266 16.883 37.6408 16.9637C37.755 17.0445 37.8121 17.1777 37.8121 17.3634C37.8121 17.4765 37.7451 17.6258 37.6109 17.8116C37.4767 17.9973 37.3239 18.2025 37.1526 18.4273C36.9555 18.6926 36.7783 18.9727 36.6227 19.265C36.4173 19.6554 36.2498 20.0651 36.1226 20.4883C36.0686 20.6622 36.0234 20.8387 35.9871 21.0172C35.9605 21.1572 35.9313 21.3389 35.8994 21.5623C35.8675 21.7857 35.8396 21.9566 35.8157 22.075C35.76 22.3495 35.6809 22.54 35.5787 22.6463C35.4763 22.7526 35.3402 22.8057 35.1702 22.8058C35.0966 22.8086 35.0233 22.7946 34.9557 22.7649C34.8881 22.7352 34.828 22.6906 34.7797 22.6342C34.6814 22.5198 34.6322 22.3509 34.6322 22.1275C34.6322 21.9553 34.6681 21.7211 34.7398 21.425C34.8331 21.0628 34.9503 20.7074 35.0905 20.3611C35.4576 19.4372 35.9541 18.5717 36.5649 17.7914H34.433C34.2099 17.7914 34.0431 17.7503 33.9329 17.6682C33.8226 17.5862 33.7675 17.4576 33.7675 17.2827C33.7675 17.0969 33.826 16.9772 33.9429 16.9233C34.0598 16.8695 34.2231 16.8426 34.433 16.8426Z" fill="#D5B690"/>
<path d="M34.433 16.8426H37.0869C37.3419 16.8426 37.5266 16.883 37.6408 16.9637C37.755 17.0445 37.8121 17.1777 37.8121 17.3634C37.8121 17.4765 37.7451 17.6258 37.6109 17.8116C37.4767 17.9973 37.3239 18.2025 37.1526 18.4273C36.9555 18.6926 36.7783 18.9727 36.6227 19.265C36.4173 19.6554 36.2498 20.0651 36.1226 20.4883C36.0686 20.6622 36.0234 20.8387 35.9871 21.0172C35.9605 21.1572 35.9313 21.3389 35.8994 21.5623C35.8675 21.7857 35.8396 21.9566 35.8157 22.075C35.76 22.3495 35.6809 22.54 35.5787 22.6463C35.4763 22.7526 35.3402 22.8057 35.1702 22.8058C35.0966 22.8086 35.0233 22.7946 34.9557 22.7649C34.8881 22.7352 34.828 22.6906 34.7797 22.6342C34.6814 22.5198 34.6322 22.3509 34.6322 22.1275C34.6322 21.9553 34.6681 21.7211 34.7398 21.425C34.8331 21.0628 34.9503 20.7074 35.0905 20.3611C35.4576 19.4372 35.9541 18.5717 36.5649 17.7914H34.433C34.2099 17.7914 34.0431 17.7503 33.9329 17.6682C33.8226 17.5862 33.7675 17.4576 33.7675 17.2827C33.7675 17.0969 33.826 16.9772 33.9429 16.9233C34.0598 16.8695 34.2231 16.8426 34.433 16.8426Z" fill="#D9BA66" fill-opacity="0.2"/>
<path d="M11.5 19.3447C11.5 21.9584 12.4294 24.0773 13.576 24.0773C14.045 24.0773 14.4777 23.7226 14.8254 23.1246C15.3274 22.2608 14.5458 20.8891 14.5458 19.3447C14.5458 17.8046 15.3292 16.4362 14.8295 15.572C14.4812 14.9696 14.0469 14.6122 13.576 14.6122C12.4294 14.6122 11.5 16.731 11.5 19.3447Z" fill="url(#paint5_linear_10_775)"/>
<path d="M13.12 53.1C12.54 53.1 12.0533 53.0133 11.66 52.84C11.2667 52.66 10.9633 52.43 10.75 52.15C10.5433 51.8633 10.4333 51.56 10.42 51.24C10.42 51.1867 10.44 51.14 10.48 51.1C10.5267 51.0533 10.58 51.03 10.64 51.03H11.15C11.23 51.03 11.29 51.05 11.33 51.09C11.37 51.13 11.3967 51.1767 11.41 51.23C11.4433 51.39 11.5233 51.55 11.65 51.71C11.7833 51.8633 11.9667 51.9933 12.2 52.1C12.44 52.2 12.7467 52.25 13.12 52.25C13.6933 52.25 14.1133 52.15 14.38 51.95C14.6533 51.7433 14.79 51.47 14.79 51.13C14.79 50.8967 14.7167 50.71 14.57 50.57C14.43 50.4233 14.2133 50.2933 13.92 50.18C13.6267 50.0667 13.2467 49.9433 12.78 49.81C12.2933 49.67 11.89 49.5167 11.57 49.35C11.25 49.1833 11.01 48.9767 10.85 48.73C10.6967 48.4833 10.62 48.17 10.62 47.79C10.62 47.43 10.7167 47.11 10.91 46.83C11.1033 46.5433 11.38 46.3167 11.74 46.15C12.1067 45.9833 12.55 45.9 13.07 45.9C13.4833 45.9 13.8433 45.9567 14.15 46.07C14.4633 46.1767 14.7233 46.3233 14.93 46.51C15.1367 46.69 15.2933 46.8867 15.4 47.1C15.5067 47.3067 15.5633 47.51 15.57 47.71C15.57 47.7567 15.5533 47.8033 15.52 47.85C15.4867 47.89 15.4333 47.91 15.36 47.91H14.83C14.7833 47.91 14.7333 47.8967 14.68 47.87C14.6333 47.8433 14.5967 47.7933 14.57 47.72C14.53 47.4467 14.3767 47.2167 14.11 47.03C13.8433 46.8433 13.4967 46.75 13.07 46.75C12.6367 46.75 12.2833 46.8333 12.01 47C11.7433 47.1667 11.61 47.4267 11.61 47.78C11.61 48.0067 11.6733 48.1967 11.8 48.35C11.9267 48.4967 12.1267 48.6267 12.4 48.74C12.6733 48.8533 13.03 48.9733 13.47 49.1C14.0033 49.2467 14.44 49.4033 14.78 49.57C15.12 49.73 15.37 49.9333 15.53 50.18C15.6967 50.42 15.78 50.73 15.78 51.11C15.78 51.53 15.67 51.89 15.45 52.19C15.23 52.4833 14.92 52.71 14.52 52.87C14.1267 53.0233 13.66 53.1 13.12 53.1ZM18.9007 53.1C18.474 53.1 18.1107 53.0067 17.8107 52.82C17.5174 52.6267 17.294 52.36 17.1407 52.02C16.9874 51.68 16.9107 51.29 16.9107 50.85V48.03C16.9107 47.9633 16.9307 47.91 16.9707 47.87C17.0174 47.8233 17.074 47.8 17.1407 47.8H17.6407C17.7074 47.8 17.7607 47.8233 17.8007 47.87C17.8474 47.91 17.8707 47.9633 17.8707 48.03V50.8C17.8707 51.7933 18.304 52.29 19.1707 52.29C19.584 52.29 19.914 52.16 20.1607 51.9C20.414 51.6333 20.5407 51.2667 20.5407 50.8V48.03C20.5407 47.9633 20.5607 47.91 20.6007 47.87C20.6474 47.8233 20.704 47.8 20.7707 47.8H21.2607C21.334 47.8 21.3907 47.8233 21.4307 47.87C21.4707 47.91 21.4907 47.9633 21.4907 48.03V52.77C21.4907 52.8367 21.4707 52.8933 21.4307 52.94C21.3907 52.98 21.334 53 21.2607 53H20.8007C20.734 53 20.6774 52.98 20.6307 52.94C20.5907 52.8933 20.5707 52.8367 20.5707 52.77V52.33C20.3907 52.5633 20.1707 52.75 19.9107 52.89C19.6574 53.03 19.3207 53.1 18.9007 53.1ZM23.2163 54.9C23.1497 54.9 23.093 54.8767 23.0463 54.83C23.0063 54.79 22.9863 54.7367 22.9863 54.67V48.03C22.9863 47.9633 23.0063 47.91 23.0463 47.87C23.093 47.8233 23.1497 47.8 23.2163 47.8H23.6763C23.743 47.8 23.7963 47.8233 23.8363 47.87C23.883 47.91 23.9063 47.9633 23.9063 48.03V48.47C24.0663 48.25 24.2797 48.0667 24.5463 47.92C24.813 47.7733 25.1463 47.7 25.5463 47.7C25.9197 47.7 26.2363 47.7633 26.4963 47.89C26.763 48.0167 26.9797 48.19 27.1463 48.41C27.3197 48.63 27.4497 48.88 27.5363 49.16C27.623 49.44 27.6697 49.74 27.6763 50.06C27.683 50.1667 27.6863 50.28 27.6863 50.4C27.6863 50.52 27.683 50.6333 27.6763 50.74C27.6697 51.0533 27.623 51.3533 27.5363 51.64C27.4497 51.92 27.3197 52.17 27.1463 52.39C26.9797 52.6033 26.763 52.7767 26.4963 52.91C26.2363 53.0367 25.9197 53.1 25.5463 53.1C25.1597 53.1 24.833 53.03 24.5663 52.89C24.3063 52.7433 24.093 52.5633 23.9263 52.35V54.67C23.9263 54.7367 23.9063 54.79 23.8663 54.83C23.8263 54.8767 23.7697 54.9 23.6963 54.9H23.2163ZM25.3363 52.29C25.683 52.29 25.953 52.2167 26.1463 52.07C26.3463 51.9167 26.4897 51.72 26.5763 51.48C26.663 51.2333 26.713 50.97 26.7263 50.69C26.733 50.4967 26.733 50.3033 26.7263 50.11C26.713 49.83 26.663 49.57 26.5763 49.33C26.4897 49.0833 26.3463 48.8867 26.1463 48.74C25.953 48.5867 25.683 48.51 25.3363 48.51C25.0097 48.51 24.743 48.5867 24.5363 48.74C24.3363 48.8933 24.1863 49.09 24.0863 49.33C23.993 49.5633 23.9397 49.8033 23.9263 50.05C23.9197 50.1567 23.9163 50.2833 23.9163 50.43C23.9163 50.5767 23.9197 50.7067 23.9263 50.82C23.933 51.0533 23.9863 51.2833 24.0863 51.51C24.193 51.7367 24.3497 51.9233 24.5563 52.07C24.763 52.2167 25.023 52.29 25.3363 52.29ZM29.1734 54.9C29.1067 54.9 29.05 54.8767 29.0034 54.83C28.9634 54.79 28.9434 54.7367 28.9434 54.67V48.03C28.9434 47.9633 28.9634 47.91 29.0034 47.87C29.05 47.8233 29.1067 47.8 29.1734 47.8H29.6334C29.7 47.8 29.7534 47.8233 29.7934 47.87C29.84 47.91 29.8634 47.9633 29.8634 48.03V48.47C30.0234 48.25 30.2367 48.0667 30.5034 47.92C30.77 47.7733 31.1034 47.7 31.5034 47.7C31.8767 47.7 32.1934 47.7633 32.4534 47.89C32.72 48.0167 32.9367 48.19 33.1034 48.41C33.2767 48.63 33.4067 48.88 33.4934 49.16C33.58 49.44 33.6267 49.74 33.6334 50.06C33.64 50.1667 33.6434 50.28 33.6434 50.4C33.6434 50.52 33.64 50.6333 33.6334 50.74C33.6267 51.0533 33.58 51.3533 33.4934 51.64C33.4067 51.92 33.2767 52.17 33.1034 52.39C32.9367 52.6033 32.72 52.7767 32.4534 52.91C32.1934 53.0367 31.8767 53.1 31.5034 53.1C31.1167 53.1 30.79 53.03 30.5234 52.89C30.2634 52.7433 30.05 52.5633 29.8834 52.35V54.67C29.8834 54.7367 29.8634 54.79 29.8234 54.83C29.7834 54.8767 29.7267 54.9 29.6534 54.9H29.1734ZM31.2934 52.29C31.64 52.29 31.91 52.2167 32.1034 52.07C32.3034 51.9167 32.4467 51.72 32.5334 51.48C32.62 51.2333 32.67 50.97 32.6834 50.69C32.69 50.4967 32.69 50.3033 32.6834 50.11C32.67 49.83 32.62 49.57 32.5334 49.33C32.4467 49.0833 32.3034 48.8867 32.1034 48.74C31.91 48.5867 31.64 48.51 31.2934 48.51C30.9667 48.51 30.7 48.5867 30.4934 48.74C30.2934 48.8933 30.1434 49.09 30.0434 49.33C29.95 49.5633 29.8967 49.8033 29.8834 50.05C29.8767 50.1567 29.8734 50.2833 29.8734 50.43C29.8734 50.5767 29.8767 50.7067 29.8834 50.82C29.89 51.0533 29.9434 51.2833 30.0434 51.51C30.15 51.7367 30.3067 51.9233 30.5134 52.07C30.72 52.2167 30.98 52.29 31.2934 52.29ZM37.0204 53.1C36.5137 53.1 36.0904 53.0033 35.7504 52.81C35.4104 52.6167 35.1504 52.35 34.9704 52.01C34.7904 51.6633 34.6904 51.27 34.6704 50.83C34.6637 50.7167 34.6604 50.5733 34.6604 50.4C34.6604 50.22 34.6637 50.0767 34.6704 49.97C34.6904 49.5233 34.7904 49.13 34.9704 48.79C35.1571 48.45 35.4204 48.1833 35.7604 47.99C36.1004 47.7967 36.5204 47.7 37.0204 47.7C37.5204 47.7 37.9404 47.7967 38.2804 47.99C38.6204 48.1833 38.8804 48.45 39.0604 48.79C39.2471 49.13 39.3504 49.5233 39.3704 49.97C39.3771 50.0767 39.3804 50.22 39.3804 50.4C39.3804 50.5733 39.3771 50.7167 39.3704 50.83C39.3504 51.27 39.2504 51.6633 39.0704 52.01C38.8904 52.35 38.6304 52.6167 38.2904 52.81C37.9504 53.0033 37.5271 53.1 37.0204 53.1ZM37.0204 52.33C37.4337 52.33 37.7637 52.2 38.0104 51.94C38.2571 51.6733 38.3904 51.2867 38.4104 50.78C38.4171 50.68 38.4204 50.5533 38.4204 50.4C38.4204 50.2467 38.4171 50.12 38.4104 50.02C38.3904 49.5133 38.2571 49.13 38.0104 48.87C37.7637 48.6033 37.4337 48.47 37.0204 48.47C36.6071 48.47 36.2737 48.6033 36.0204 48.87C35.7737 49.13 35.6437 49.5133 35.6304 50.02C35.6237 50.12 35.6204 50.2467 35.6204 50.4C35.6204 50.5533 35.6237 50.68 35.6304 50.78C35.6437 51.2867 35.7737 51.6733 36.0204 51.94C36.2737 52.2 36.6071 52.33 37.0204 52.33ZM40.8626 53C40.7959 53 40.7392 52.98 40.6926 52.94C40.6526 52.8933 40.6326 52.8367 40.6326 52.77V48.04C40.6326 47.9733 40.6526 47.9167 40.6926 47.87C40.7392 47.8233 40.7959 47.8 40.8626 47.8H41.3226C41.3892 47.8 41.4459 47.8233 41.4926 47.87C41.5392 47.9167 41.5626 47.9733 41.5626 48.04V48.48C41.6959 48.2533 41.8792 48.0833 42.1126 47.97C42.3459 47.8567 42.6259 47.8 42.9526 47.8H43.3526C43.4192 47.8 43.4726 47.8233 43.5126 47.87C43.5526 47.91 43.5726 47.9633 43.5726 48.03V48.44C43.5726 48.5067 43.5526 48.56 43.5126 48.6C43.4726 48.64 43.4192 48.66 43.3526 48.66H42.7526C42.3926 48.66 42.1092 48.7667 41.9026 48.98C41.6959 49.1867 41.5926 49.47 41.5926 49.83V52.77C41.5926 52.8367 41.5692 52.8933 41.5226 52.94C41.4759 52.98 41.4192 53 41.3526 53H40.8626ZM46.4614 53C46.0881 53 45.7847 52.93 45.5514 52.79C45.3181 52.6433 45.1481 52.44 45.0414 52.18C44.9347 51.9133 44.8814 51.6 44.8814 51.24V48.6H44.1014C44.0347 48.6 43.9781 48.58 43.9314 48.54C43.8914 48.4933 43.8714 48.4367 43.8714 48.37V48.03C43.8714 47.9633 43.8914 47.91 43.9314 47.87C43.9781 47.8233 44.0347 47.8 44.1014 47.8H44.8814V46.13C44.8814 46.0633 44.9014 46.01 44.9414 45.97C44.9881 45.9233 45.0447 45.9 45.1114 45.9H45.5814C45.6481 45.9 45.7014 45.9233 45.7414 45.97C45.7881 46.01 45.8114 46.0633 45.8114 46.13V47.8H47.0514C47.1181 47.8 47.1714 47.8233 47.2114 47.87C47.2581 47.91 47.2814 47.9633 47.2814 48.03V48.37C47.2814 48.4367 47.2581 48.4933 47.2114 48.54C47.1714 48.58 47.1181 48.6 47.0514 48.6H45.8114V51.17C45.8114 51.4833 45.8647 51.73 45.9714 51.91C46.0781 52.09 46.2681 52.18 46.5414 52.18H47.1514C47.2181 52.18 47.2714 52.2033 47.3114 52.25C47.3581 52.29 47.3814 52.3433 47.3814 52.41V52.77C47.3814 52.8367 47.3581 52.8933 47.3114 52.94C47.2714 52.98 47.2181 53 47.1514 53H46.4614Z" fill="#8C867B"/>
<defs>
<linearGradient id="paint0_linear_10_775" x1="43.2357" y1="37.4999" x2="24.4799" y2="24.9129" gradientUnits="userSpaceOnUse">
<stop stop-color="#ECAF5A"/>
<stop offset="1" stop-color="#89683D"/>
</linearGradient>
<linearGradient id="paint1_linear_10_775" x1="43.2357" y1="37.4999" x2="24.4799" y2="24.9129" gradientUnits="userSpaceOnUse">
<stop stop-color="#ECAF5A"/>
<stop offset="1" stop-color="#89683D"/>
</linearGradient>
<linearGradient id="paint2_linear_10_775" x1="46.5" y1="34.6646" x2="26.2712" y2="18.1374" gradientUnits="userSpaceOnUse">
<stop stop-color="#ECAF5A"/>
<stop offset="1" stop-color="#89683D"/>
</linearGradient>
<linearGradient id="paint3_linear_10_775" x1="46.5" y1="34.6646" x2="26.2712" y2="18.1374" gradientUnits="userSpaceOnUse">
<stop stop-color="#ECAF5A"/>
<stop offset="1" stop-color="#89683D"/>
</linearGradient>
<linearGradient id="paint4_linear_10_775" x1="34.9442" y1="35.8535" x2="39.306" y2="33.0031" gradientUnits="userSpaceOnUse">
<stop stop-color="#967A53"/>
<stop offset="1" stop-color="#E9D39F"/>
</linearGradient>
<linearGradient id="paint5_linear_10_775" x1="11.5" y1="19.3447" x2="14.9961" y2="19.3447" gradientUnits="userSpaceOnUse">
<stop stop-color="#967A53"/>
<stop offset="1" stop-color="#E9D39F"/>
</linearGradient>
</defs>
</svg>
