<svg width="101" height="33" viewBox="0 0 101 33" fill="none" xmlns="http://www.w3.org/2000/svg">
<path fill-rule="evenodd" clip-rule="evenodd" d="M19.096 7.42285L14.2908 10.1799L16.0574 11.1985L19.096 9.45993L22.1345 11.1985L23.9012 10.1799L19.096 7.42285ZM22.1345 12.6385L23.9012 13.657V15.6941L20.8625 17.4326V20.9097L19.096 21.9283L17.3294 20.9097V17.4326L14.2908 15.6941V13.657L16.0574 12.6385L19.096 14.377L22.1345 12.6385ZM23.9012 17.1341V19.1712L22.1345 20.1897V18.1526L23.9012 17.1341ZM22.1169 21.6297L25.1555 19.8911V16.4141L26.922 15.3956V20.9097L22.1169 23.6667V21.6297ZM25.1555 12.937L23.3888 11.9185L25.1555 10.8999L26.922 11.9185V13.9556L25.1555 14.9741V12.937ZM17.3294 24.4044V22.3673L19.096 23.3858L20.8625 22.3673V24.4044L19.096 25.4229L17.3294 24.4044ZM16.0574 20.1897L14.2908 19.1712V17.1341L16.0574 18.1526V20.1897ZM19.096 12.937L17.3294 11.9185L19.096 10.8999L20.8625 11.9185L19.096 12.937ZM14.8031 11.9185L13.0365 12.937V14.9741L11.2699 13.9556V11.9185L13.0365 10.8999L14.8031 11.9185ZM11.2699 15.3956L13.0365 16.4141V19.8911L16.0751 21.6297V23.6667L11.2699 20.9097V15.3956Z" fill="#F0B90B"/>
<path d="M46.9058 21.9229H44.8058L40.0508 14.7379V21.9229H37.9508V11.4379H40.0508L44.8058 18.6379V11.4379H46.9058V21.9229ZM51.081 13.1479V15.7729H54.606V17.4379H51.081V20.2129H55.056V21.9229H48.981V11.4379H55.056V13.1479H51.081ZM63.3844 19.9279H59.2144L58.5244 21.9229H56.3194L60.0844 11.4379H62.5294L66.2944 21.9229H64.0744L63.3844 19.9279ZM62.8144 18.2479L61.2994 13.8679L59.7844 18.2479H62.8144ZM73.1017 21.9229L70.7917 17.8429H69.8017V21.9229H67.7017V11.4529H71.6317C72.4417 11.4529 73.1317 11.5979 73.7017 11.8879C74.2717 12.1679 74.6967 12.5529 74.9767 13.0429C75.2667 13.5229 75.4117 14.0629 75.4117 14.6629C75.4117 15.3529 75.2117 15.9779 74.8117 16.5379C74.4117 17.0879 73.8167 17.4679 73.0267 17.6779L75.5317 21.9229H73.1017ZM69.8017 16.2679H71.5567C72.1267 16.2679 72.5517 16.1329 72.8317 15.8629C73.1117 15.5829 73.2517 15.1979 73.2517 14.7079C73.2517 14.2279 73.1117 13.8579 72.8317 13.5979C72.5517 13.3279 72.1267 13.1929 71.5567 13.1929H69.8017V16.2679Z" fill="url(#paint0_linear_10_693)"/>
<path d="M91.7863 15.3499L87.096 20.0403L82.4056 15.3499" stroke="url(#paint1_linear_10_693)" stroke-width="1.2" stroke-linecap="round" stroke-linejoin="round"/>
<defs>
<linearGradient id="paint0_linear_10_693" x1="35.1194" y1="-18.8271" x2="98.5599" y2="9.17039" gradientUnits="userSpaceOnUse">
<stop stop-color="#FFE986" stop-opacity="0.88"/>
<stop offset="0.670219" stop-color="#BC7E20"/>
<stop offset="1" stop-color="#A74D01"/>
</linearGradient>
<linearGradient id="paint1_linear_10_693" x1="82.0593" y1="9.82201" x2="96.6928" y2="16.6029" gradientUnits="userSpaceOnUse">
<stop stop-color="#FFE986" stop-opacity="0.88"/>
<stop offset="0.670219" stop-color="#BC7E20"/>
<stop offset="1" stop-color="#A74D01"/>
</linearGradient>
</defs>
</svg>
