<svg width="101" height="33" viewBox="0 0 101 33" fill="none" xmlns="http://www.w3.org/2000/svg">
<path fill-rule="evenodd" clip-rule="evenodd" d="M12.096 7.42285L7.29078 10.1799L9.05741 11.1985L12.096 9.45993L15.1345 11.1985L16.9012 10.1799L12.096 7.42285ZM15.1345 12.6385L16.9012 13.657V15.6941L13.8625 17.4326V20.9097L12.096 21.9283L10.3294 20.9097V17.4326L7.29078 15.6941V13.657L9.05741 12.6385L12.096 14.377L15.1345 12.6385ZM16.9012 17.1341V19.1712L15.1345 20.1897V18.1526L16.9012 17.1341ZM15.1169 21.6297L18.1555 19.8911V16.4141L19.922 15.3956V20.9097L15.1169 23.6667V21.6297ZM18.1555 12.937L16.3888 11.9185L18.1555 10.8999L19.922 11.9185V13.9556L18.1555 14.9741V12.937ZM10.3294 24.4044V22.3673L12.096 23.3858L13.8625 22.3673V24.4044L12.096 25.4229L10.3294 24.4044ZM9.05741 20.1897L7.29078 19.1712V17.1341L9.05741 18.1526V20.1897ZM12.096 12.937L10.3294 11.9185L12.096 10.8999L13.8625 11.9185L12.096 12.937ZM7.8031 11.9185L6.03648 12.937V14.9741L4.26987 13.9556V11.9185L6.03648 10.8999L7.8031 11.9185ZM4.26987 15.3956L6.03648 16.4141V19.8911L9.07505 21.6297V23.6667L4.26987 20.9097V15.3956Z" fill="#F0B90B"/>
<path d="M36.8517 10.9529V12.6479H34.0617V21.4229H31.9617V12.6479H29.1717V10.9529H36.8517ZM47.0689 10.9529V21.4229H44.9689V16.9679H40.4839V21.4229H38.3839V10.9529H40.4839V15.2579H44.9689V10.9529H47.0689ZM56.7708 14.1929C56.7708 14.7529 56.6358 15.2779 56.3658 15.7679C56.1058 16.2579 55.6908 16.6529 55.1208 16.9529C54.5608 17.2529 53.8508 17.4029 52.9908 17.4029H51.2358V21.4229H49.1358V10.9529H52.9908C53.8008 10.9529 54.4908 11.0929 55.0608 11.3729C55.6308 11.6529 56.0558 12.0379 56.3358 12.5279C56.6258 13.0179 56.7708 13.5729 56.7708 14.1929ZM52.9008 15.7079C53.4808 15.7079 53.9108 15.5779 54.1908 15.3179C54.4708 15.0479 54.6108 14.6729 54.6108 14.1929C54.6108 13.1729 54.0408 12.6629 52.9008 12.6629H51.2358V15.7079H52.9008ZM64.6818 19.4279H60.5118L59.8218 21.4229H57.6168L61.3818 10.9379H63.8268L67.5918 21.4229H65.3718L64.6818 19.4279ZM64.1118 17.7479L62.5968 13.3679L61.0818 17.7479H64.1118ZM77.3241 10.9529L73.7841 17.7779V21.4229H71.6841V17.7779L68.1291 10.9529H70.4991L72.7491 15.7379L74.9841 10.9529H77.3241Z" fill="url(#paint0_linear_10_712)"/>
<path d="M93.7863 15.3499L89.096 20.0403L84.4056 15.3499" stroke="url(#paint1_linear_10_712)" stroke-width="1.2" stroke-linecap="round" stroke-linejoin="round"/>
<defs>
<linearGradient id="paint0_linear_10_712" x1="23.0288" y1="-17.1486" x2="97.7121" y2="31.3015" gradientUnits="userSpaceOnUse">
<stop stop-color="#FFE986" stop-opacity="0.88"/>
<stop offset="0.670219" stop-color="#BC7E20"/>
<stop offset="1" stop-color="#A74D01"/>
</linearGradient>
<linearGradient id="paint1_linear_10_712" x1="84.0593" y1="9.82201" x2="98.6928" y2="16.6029" gradientUnits="userSpaceOnUse">
<stop stop-color="#FFE986" stop-opacity="0.88"/>
<stop offset="0.670219" stop-color="#BC7E20"/>
<stop offset="1" stop-color="#A74D01"/>
</linearGradient>
</defs>
</svg>
