<svg width="31" height="18" viewBox="0 0 31 18" fill="none" xmlns="http://www.w3.org/2000/svg">
<path d="M30.4299 7.99753L23.9449 1.4853L23.9331 1.47349L23.9074 1.45093C23.8654 1.41284 23.8215 1.37698 23.7758 1.3435C23.7437 1.31772 23.7117 1.29301 23.6774 1.27045C23.6624 1.25971 23.6475 1.25112 23.6314 1.24145C23.2617 0.998289 22.8144 0.903631 22.3784 0.976269C21.9425 1.04891 21.5496 1.28353 21.2779 1.63355L11.192 11.7628V2.73898C11.192 2.2646 11.0043 1.80964 10.6703 1.4742C10.3362 1.13877 9.88318 0.950317 9.41078 0.950317C8.93838 0.950317 8.48532 1.13877 8.15129 1.4742C7.81725 1.80964 7.62959 2.2646 7.62959 2.73898V11.7628L3.94739 8.06521C3.61082 7.74292 3.16206 7.56561 2.69703 7.57116C2.23199 7.57671 1.78756 7.76469 1.45871 8.09492C1.12986 8.42515 0.942667 8.87144 0.937138 9.33843C0.931609 9.80541 1.10818 10.2561 1.42912 10.594L8.15164 17.3447C8.19389 17.3877 8.23854 17.4283 8.28537 17.4661C8.3303 17.5027 8.37737 17.5381 8.42444 17.5736C8.66733 17.7316 8.94493 17.8279 9.23319 17.854H9.24068C9.29845 17.8593 9.35622 17.8625 9.41399 17.8625H9.44073C9.48923 17.8625 9.53737 17.8604 9.58515 17.8561H9.62046C9.66646 17.8507 9.71246 17.8454 9.75739 17.8357H9.77771C9.82799 17.8249 9.87827 17.8131 9.92748 17.7981H9.93604C9.98975 17.7818 10.0426 17.7628 10.0944 17.7412C10.1682 17.7105 10.2397 17.6746 10.3083 17.6337L10.349 17.6101C10.4163 17.5688 10.4806 17.5228 10.5415 17.4726L10.5597 17.4565C10.5972 17.4242 10.6346 17.392 10.6667 17.3555L20.8938 7.07903V16.075C20.8938 16.5493 21.0815 17.0043 21.4155 17.3397C21.7496 17.6752 22.2026 17.8636 22.675 17.8636C23.1474 17.8636 23.6005 17.6752 23.9345 17.3397C24.2686 17.0043 24.4562 16.5493 24.4562 16.075V7.0511L27.9116 10.5274C28.247 10.8562 28.698 11.039 29.1668 11.0361C29.6355 11.0332 30.0842 10.8449 30.4156 10.512C30.747 10.1791 30.9343 9.72841 30.937 9.25771C30.9397 8.78701 30.7575 8.33423 30.4299 7.99753Z" fill="white"/>
</svg>
